<svg width="180" height="196" viewBox="0 0 180 196" fill="none" xmlns="http://www.w3.org/2000/svg">
<path d="M113.873 175.369L114.867 191.871C114.949 193.238 113.976 194.442 112.622 194.646C107.775 195.38 102.813 195.752 97.8784 195.752C92.9495 195.752 87.9892 195.38 83.1359 194.646C81.7821 194.442 80.8075 193.238 80.8901 191.872L81.7408 177.702C71.3747 175.624 61.6751 171.604 52.8449 165.723L43.4312 176.344C42.5236 177.366 40.9839 177.532 39.8832 176.719C31.9197 170.854 24.9048 163.838 19.0322 155.868C18.2194 154.767 18.3811 153.228 19.4062 152.319L30.0238 142.908C24.144 134.08 20.1226 124.379 18.0439 114.009L3.87833 114.861C2.52795 114.945 1.31062 113.971 1.10378 112.616C0.372004 107.771 0 102.811 0 97.8729C0 92.9351 0.372004 87.9752 1.10378 83.1296C1.30871 81.775 2.51074 80.7794 3.87833 80.8846L18.0474 81.7372C20.1261 71.37 24.1459 61.6688 30.0257 52.8405L19.4062 43.4268C18.3831 42.5184 18.2194 40.9795 19.0307 39.8781C24.8968 31.9153 31.9113 24.9008 39.8817 19.0271C40.9839 18.215 42.5236 18.3794 43.4297 19.4018L52.8468 30.0236C61.7302 24.1224 71.8068 19.9829 82.247 17.9455L81.1069 3.89993C80.9949 2.5117 81.9767 1.27449 83.3546 1.06956C92.9338 -0.35652 102.823 -0.35652 112.402 1.06956C113.78 1.27449 114.761 2.51208 114.65 3.89993L113.313 20.3404C113.196 21.7974 111.904 22.8825 110.463 22.7628C109.006 22.6439 107.921 21.3677 108.04 19.9118L109.173 5.97099C101.688 5.05991 94.0685 5.05991 86.5837 5.97099L87.7154 19.9106C87.8274 21.284 86.8647 22.5139 85.5059 22.736C74.2219 24.5789 63.308 29.0567 53.9441 35.6847C52.8418 36.465 51.3297 36.2884 50.4377 35.281L41.0963 24.7433C34.9826 29.4979 29.4969 34.9831 24.7473 41.092L35.2838 50.4326C36.2932 51.328 36.4671 52.8393 35.6887 53.9408C29.0752 63.2849 24.7492 73.7224 22.8303 84.9636C22.6013 86.2941 21.3973 87.2404 20.0645 87.1586L6.00598 86.3128C5.53074 90.1311 5.29141 94.0095 5.29141 97.8733C5.29141 101.738 5.53074 105.616 6.00598 109.434L20.0596 108.588C21.3927 108.499 22.5982 109.454 22.8253 110.783C24.7457 122.028 29.0737 132.466 35.6872 141.808C36.4656 142.91 36.2916 144.421 35.2823 145.317L24.7492 154.655C29.5027 160.77 34.9879 166.254 41.0967 171.003L50.4381 160.465C51.3301 159.456 52.8422 159.28 53.9444 160.06C63.2912 166.675 73.728 171.001 84.9688 172.92C86.2985 173.148 87.244 174.339 87.1629 175.686L86.3191 189.744C93.971 190.697 101.804 190.697 109.438 189.744L108.593 175.687C108.505 174.228 109.616 172.975 111.074 172.887C112.526 172.809 113.785 173.911 113.873 175.369V175.369ZM170.659 60.8934C174.897 60.8934 178.347 64.3424 178.347 68.5817C178.347 72.8209 174.897 76.2699 170.659 76.2699C169.685 76.2699 168.76 76.0692 167.902 75.7373L160.709 83.1866C160.21 83.7023 159.524 83.9944 158.806 83.9944H122.055C120.594 83.9944 119.41 82.8103 119.41 81.3491C119.41 79.8878 120.594 78.7038 122.055 78.7038H157.683L163.933 72.2302C163.339 71.1394 162.97 69.9091 162.97 68.582C162.971 64.342 166.42 60.8934 170.659 60.8934V60.8934ZM168.261 68.5817C168.261 69.9034 169.336 70.9788 170.659 70.9788C171.981 70.9788 173.056 69.9034 173.056 68.5817C173.056 67.26 171.981 66.1845 170.659 66.1845C169.336 66.1841 168.261 67.2596 168.261 68.5817ZM141.93 53.9355L151.736 39.8337C150.745 38.5395 150.133 36.9418 150.133 35.19C150.133 30.9507 153.583 27.5018 157.821 27.5018C162.06 27.5018 165.509 30.9507 165.509 35.19C165.509 39.4292 162.06 42.8782 157.821 42.8782C157.261 42.8782 156.717 42.8101 156.19 42.6958L145.485 58.0917C144.99 58.8021 144.179 59.2269 143.313 59.2269H114.216C112.755 59.2269 111.57 58.0428 111.57 56.5816C111.57 55.1203 112.755 53.9362 114.216 53.9362H141.93V53.9355ZM155.424 35.19C155.424 36.5117 156.498 37.5872 157.821 37.5872C159.144 37.5872 160.218 36.5117 160.218 35.19C160.218 33.8683 159.143 32.7928 157.821 32.7928C156.498 32.7924 155.424 33.8679 155.424 35.19ZM164.872 160.558C164.872 164.797 161.422 168.246 157.184 168.246C152.945 168.246 149.496 164.797 149.496 160.558C149.496 158.485 150.329 156.609 151.667 155.224L141.93 141.22H114.216C112.755 141.22 111.57 140.036 111.57 138.574C111.57 137.113 112.755 135.929 114.216 135.929H143.313C144.179 135.929 144.991 136.353 145.485 137.064L156.521 152.937C156.743 152.918 156.957 152.87 157.184 152.87C161.422 152.869 164.872 156.318 164.872 160.558V160.558ZM159.581 160.558C159.581 159.236 158.507 158.161 157.184 158.161C155.861 158.161 154.787 159.236 154.787 160.558C154.787 161.879 155.862 162.955 157.184 162.955C158.507 162.955 159.581 161.879 159.581 160.558ZM177.709 127.902C177.709 132.141 174.26 135.59 170.021 135.59C165.783 135.59 162.333 132.141 162.333 127.902C162.333 126.251 162.867 124.73 163.755 123.476L157.683 117.188H122.055C120.594 117.188 119.41 116.004 119.41 114.542C119.41 113.081 120.594 111.897 122.055 111.897H158.806C159.524 111.897 160.209 112.189 160.709 112.705L168.195 120.457C168.783 120.312 169.389 120.214 170.021 120.214C174.26 120.213 177.709 123.662 177.709 127.902V127.902ZM172.419 127.902C172.419 126.58 171.344 125.504 170.022 125.504C168.699 125.504 167.624 126.58 167.624 127.902C167.624 129.223 168.699 130.299 170.022 130.299C171.344 130.299 172.419 129.223 172.419 127.902ZM180 97.9448C180 102.184 176.55 105.633 172.312 105.633C169.006 105.633 166.205 103.524 165.121 100.589H107.134V147.353C107.134 156.935 99.3389 164.731 89.7563 164.731C82.7383 164.731 76.5622 160.618 73.8274 154.314C73.7173 154.317 73.6087 154.317 73.5001 154.317C63.9175 154.317 56.1226 146.522 56.1226 136.94C56.1226 136.481 56.1417 136.022 56.1776 135.565C52.0512 134.739 48.1434 132.615 44.9502 129.421C40.8513 125.322 38.5952 119.874 38.5952 114.079C38.5952 108.284 40.8513 102.835 44.9502 98.7381C45.2572 98.4307 45.6021 98.1612 45.9293 97.8737C45.6021 97.5858 45.2572 97.3162 44.9502 97.0092C40.8513 92.911 38.5952 87.4629 38.5952 81.6683C38.5952 75.873 40.8513 70.4249 44.9502 66.3267C48.1434 63.132 52.0512 61.0085 56.1776 60.1827C56.1413 59.7254 56.1226 59.2666 56.1226 58.8075C56.1226 49.2248 63.9175 41.4292 73.5001 41.4292C73.6087 41.4292 73.7173 41.4299 73.8274 41.4326C76.5622 35.1292 82.7383 31.0165 89.7563 31.0165C99.3389 31.0165 107.134 38.8121 107.134 48.394V95.2991H165.122C166.206 92.3651 169.007 90.2573 172.312 90.2573C176.551 90.2569 180 93.7055 180 97.9448V97.9448ZM48.6913 93.2681C49.4253 94.0022 50.2592 94.6464 51.1428 95.228H101.843V48.3933C101.843 41.7281 96.4214 36.3067 89.7567 36.3067C85.3132 36.3067 81.3573 38.6749 79.2457 42.4033C81.3864 43.1527 83.3741 44.3203 85.0926 45.86C85.1129 45.8779 85.1198 45.9035 85.1393 45.9219C86.1249 45.4616 87.2123 45.1855 88.3703 45.1855C92.6088 45.1855 96.0586 48.6345 96.0586 52.8726C96.0586 57.1118 92.6088 60.5608 88.3703 60.5608C84.1319 60.5608 80.6821 57.1118 80.6821 52.8726C80.6821 51.7264 80.9513 50.6482 81.4032 49.6702C79.209 47.7693 76.4127 46.719 73.5001 46.719C66.835 46.719 61.4136 52.1416 61.4136 58.8067C61.4136 59.1883 61.4488 59.5675 61.4843 59.9464C64.6183 60.2702 67.6168 61.2593 70.3184 62.8785C71.5032 62.1314 72.8949 61.6818 74.3959 61.6818C78.6344 61.6818 82.0841 65.1308 82.0841 69.37C82.0841 73.6085 78.6344 77.0571 74.3959 77.0571C70.1574 77.0571 66.7077 73.6081 66.7077 69.37C66.7077 68.5924 66.8583 67.856 67.0739 67.1479C64.6928 65.8362 62.044 65.1197 59.2806 65.1109C55.4393 65.3216 51.6803 67.0768 48.6913 70.0666C45.5929 73.1658 43.8862 77.2853 43.8862 81.6676C43.8862 86.0494 45.5933 90.169 48.6913 93.2681V93.2681ZM71.9983 69.3704C71.9983 70.6921 73.073 71.7668 74.3955 71.7668C75.7184 71.7668 76.7927 70.6921 76.7927 69.3704C76.7927 68.0487 75.718 66.9732 74.3955 66.9732C73.073 66.9728 71.9983 68.0483 71.9983 69.3704ZM88.3699 55.2702C89.6928 55.2702 90.7671 54.1947 90.7671 52.873C90.7671 51.5513 89.6924 50.4766 88.3699 50.4766C87.0475 50.4766 85.9728 51.5513 85.9728 52.873C85.9728 54.1947 87.0475 55.2702 88.3699 55.2702ZM101.843 147.353V100.519H51.0957C50.2259 101.094 49.4181 101.752 48.6917 102.478C45.5933 105.577 43.8866 109.696 43.8866 114.079C43.8866 118.461 45.5933 122.58 48.6917 125.68C51.6807 128.669 55.4397 130.425 59.281 130.635C62.0001 130.626 64.6121 129.937 66.9654 128.664C66.8132 128.062 66.7081 127.442 66.7081 126.793C66.7081 122.554 70.1578 119.105 74.3963 119.105C78.6348 119.105 82.0845 122.554 82.0845 126.793C82.0845 131.032 78.6348 134.481 74.3963 134.481C72.7473 134.481 71.2264 133.948 69.9728 133.06C67.3607 134.561 64.4867 135.49 61.4851 135.8C61.4495 136.179 61.4144 136.558 61.4144 136.94C61.4144 143.605 66.8361 149.026 73.5009 149.026C76.353 149.026 79.0882 148.017 81.261 146.193C80.8932 145.296 80.6829 144.318 80.6829 143.29C80.6829 139.05 84.1326 135.601 88.3711 135.601C92.6096 135.601 96.0593 139.05 96.0593 143.29C96.0593 147.529 92.6096 150.978 88.3711 150.978C87.0957 150.978 85.9104 150.636 84.8502 150.084C83.1867 151.521 81.29 152.628 79.2465 153.342C81.3581 157.072 85.314 159.44 89.7574 159.44C96.4218 159.44 101.843 154.018 101.843 147.353ZM88.3699 145.687C89.6928 145.687 90.7671 144.612 90.7671 143.29C90.7671 141.968 89.6924 140.893 88.3699 140.893C87.0475 140.893 85.9728 141.968 85.9728 143.29C85.9728 144.612 87.0475 145.687 88.3699 145.687V145.687ZM74.3959 129.19C75.7187 129.19 76.7931 128.115 76.7931 126.793C76.7931 125.472 75.7184 124.396 74.3959 124.396C73.073 124.396 71.9987 125.472 71.9987 126.793C71.9987 127.237 72.1279 127.647 72.3386 128.004C72.3822 128.055 72.4323 128.099 72.4724 128.155C72.5152 128.214 72.5428 128.279 72.5802 128.341C73.0199 128.856 73.666 129.19 74.3959 129.19ZM174.709 97.9448C174.709 96.6231 173.635 95.5476 172.312 95.5476C170.99 95.5476 169.915 96.6231 169.915 97.9448C169.915 99.2665 170.99 100.342 172.312 100.342C173.635 100.342 174.709 99.2665 174.709 97.9448Z" fill="white"/>
</svg>
