<svg width="180" height="213" viewBox="0 0 180 213" fill="none" xmlns="http://www.w3.org/2000/svg">
<path d="M178.487 102.495C184.002 72.5149 174.999 31.3039 142.192 11.6655C121.471 0.032369 97.0306 -3.04564 74.0757 3.0872C42.2788 11.5968 18.907 34.4316 11.5574 64.1697C9.91892 70.2016 9.22439 76.4512 9.49947 82.6958C9.8515 86.5703 10.5659 90.4034 11.6336 94.1442C13.0702 98.9051 13.7817 103.856 13.7432 108.829C13.5951 114.749 9.52057 120.891 5.92171 126.311C1.99855 132.226 -1.38975 137.334 0.575144 142.045C2.43993 145.238 5.72192 147.342 9.39978 147.703C9.61157 147.741 9.82585 147.763 10.041 147.768C11.0238 147.647 12.0092 147.974 12.726 148.658C13.4429 149.341 13.816 150.311 13.7432 151.299C13.7432 158.64 13.9261 162.428 16.9561 164.165C16.6918 164.717 16.5073 165.305 16.408 165.909C16.1036 167.981 16.8494 170.069 18.3969 171.479C19.9357 172.97 21.8853 173.966 23.995 174.339C24.1431 174.373 24.2846 174.399 24.4223 174.432C24.5059 174.957 24.5427 175.489 24.5327 176.021C24.5075 177.334 24.4144 178.646 24.2535 179.95C23.6674 185.601 22.8645 193.341 34.1607 197.036C36.428 197.67 38.778 197.956 41.1309 197.885C51.8274 197.409 62.3985 195.381 72.5125 191.864C75.4325 196.961 77.1931 202.639 77.6675 208.495C77.6671 209.432 78.039 210.33 78.7013 210.993C79.3631 211.656 80.2612 212.028 81.1977 212.028H169.445C170.955 212.009 172.283 211.025 172.741 209.585C173.205 208.126 172.7 206.532 171.479 205.607C167.827 202.832 155.732 173.591 155.36 163.088C156.426 160.666 157.854 157.946 159.545 154.787C168.753 138.547 175.157 120.868 178.487 102.495ZM148.274 162.734C148.364 171.182 155.974 193.506 162.513 204.963H84.4284C83.5494 199.55 81.7971 194.316 79.2399 189.466C89.4672 185.455 98.4763 180.297 102.801 174.636C103.978 173.085 103.679 170.873 102.132 169.691C100.586 168.508 98.375 168.801 97.1886 170.344C87.1987 183.427 45.6328 193.359 36.3527 190.321C30.4754 188.398 30.7095 186.14 31.275 180.682C31.4624 179.135 31.5683 177.579 31.5923 176.021C31.5923 170.069 29.1931 168.292 25.5872 167.455C24.9067 167.358 24.2568 167.107 23.6876 166.72C24.3805 166.058 25.1669 165.5 26.0215 165.066C27.495 164.342 28.2751 162.696 27.9037 161.096C27.5322 159.495 26.1084 158.362 24.4666 158.361C23.1912 158.361 21.7745 158.361 21.0299 158.268C20.8057 155.952 20.7295 153.625 20.8023 151.299C20.8714 148.514 19.8133 145.818 17.8683 143.824C15.9232 141.83 13.2555 140.707 10.4712 140.71C7.92714 140.173 7.15484 139.483 7.08948 139.323C6.57571 138.097 9.97808 132.974 11.8052 130.221C15.7247 124.314 20.6025 116.963 20.8023 109.009C20.9012 104.595 20.4106 100.188 19.3434 95.9049C23.1925 92.5152 27.7349 90.0081 32.6537 88.5595C34.4064 88.2532 36.2075 88.3794 37.9002 88.9267C39.7795 89.445 41.7224 88.3405 42.2403 86.4602C42.7582 84.5794 41.6546 82.6349 39.7757 82.1166C36.9959 81.2605 34.049 81.099 31.1923 81.6455C26.2039 82.9173 21.542 85.2344 17.5146 88.4436C17.0322 86.3857 16.7059 84.2942 16.5383 82.187C16.2992 76.6817 16.9309 71.1732 18.4101 65.8654C25.2356 38.2573 46.1875 17.8633 75.902 9.91099C97.0099 4.24554 119.494 7.05115 138.565 17.7304C168.483 35.6371 176.632 73.5586 171.544 101.215C168.372 118.876 162.209 135.867 153.322 151.452C151.382 155.076 149.706 158.206 148.496 161.102C148.292 161.62 148.215 162.18 148.274 162.734Z" fill="white"/>
<path d="M155.281 110.566C155.786 105.117 152.058 100.18 146.682 99.178L139.922 89.8007C140.337 89.0356 140.655 88.2217 140.868 87.3776L147.414 84.7579C150.438 88.2023 155.335 89.3043 159.54 87.4865C163.745 85.6686 166.301 81.3453 165.868 76.7811C165.435 72.2169 162.112 68.4525 157.64 67.4589L152.337 56.8719C156.057 53.0785 156.378 47.1084 153.086 42.9375C149.794 38.7661 143.917 37.6955 139.368 40.4386L133.454 35.525C133.902 34.3542 134.136 33.1131 134.146 31.8595C134.156 27.5312 131.528 23.6339 127.515 22.0223C123.501 20.4102 118.91 21.4092 115.928 24.5435L105.463 21.9254C104.209 17.3823 100.093 14.2252 95.3831 14.1966C90.6736 14.1681 86.5187 17.2746 85.2103 21.802L71.2244 24.6014C67.5764 20.6644 61.5551 20.0985 57.2386 23.2874C52.922 26.476 51.6881 32.401 54.3719 37.0501L47.5188 46.184C42.6078 47.0724 38.9891 51.2806 38.843 56.2729C38.697 61.2652 42.0638 65.6779 46.9144 66.8524L52.5811 80.8531C49.4721 83.9075 48.5542 88.5583 50.2692 92.567C51.9842 96.5752 55.981 99.12 60.3352 98.9759C64.6894 98.8319 68.51 96.0291 69.957 91.9162H88.908C90.4903 96.7872 95.4278 99.7364 100.462 98.8182L112.181 116.657C109.175 119.993 108.603 124.866 110.756 128.808C112.909 132.75 117.316 134.899 121.744 134.168C126.173 133.436 129.656 129.984 130.429 125.559L139.177 118.561C140.842 119.611 142.768 120.172 144.736 120.178C150.205 120.182 154.776 116.016 155.281 110.566ZM155.326 74.252C157.091 74.2483 158.588 75.5507 158.83 77.3007C159.072 79.0506 157.984 80.7107 156.284 81.1868C154.585 81.6629 152.794 80.8088 152.093 79.1872C152.081 79.1549 152.088 79.1214 152.075 79.0891L152.053 79.0547C151.888 78.6511 151.801 78.2206 151.796 77.7846C151.798 75.8347 153.377 74.2541 155.326 74.252ZM141.28 48.8049C141.619 47.1651 143.063 45.989 144.737 45.9902C146.686 45.9902 148.266 47.5717 148.266 49.5228C148.266 51.4739 146.686 53.0554 144.737 53.0554C144.3 53.05 143.868 52.9626 143.464 52.7979L143.434 52.778C143.403 52.7656 143.37 52.7722 143.338 52.7602C141.801 52.0974 140.941 50.4452 141.28 48.8049ZM137.769 57.4412L131.246 73.7639L119.811 64.609C121.362 63.2846 122.496 61.538 123.075 59.5811L137.061 56.7817C137.283 57.0172 137.526 57.2267 137.769 57.4412ZM134.011 85.8048C133.535 87.5039 131.88 88.591 130.133 88.3501C128.386 88.1091 127.085 86.615 127.087 84.8502C127.089 82.8999 128.668 81.3193 130.617 81.3176C131.053 81.323 131.485 81.4103 131.89 81.5751L131.92 81.595C131.952 81.6078 131.985 81.6024 132.017 81.614C133.635 82.3162 134.486 84.1054 134.011 85.8048ZM123.557 28.3269C125.506 28.3269 127.086 29.9084 127.086 31.8595C127.086 33.8106 125.506 35.3921 123.557 35.3921C121.608 35.3921 120.027 33.8106 120.027 31.8595C120.029 29.9092 121.608 28.329 123.557 28.3269ZM104.981 29.087L113.044 31.1044C113.025 31.3586 112.967 31.6012 112.967 31.8599C112.974 37.7104 117.711 42.4518 123.557 42.4581C125.45 42.4481 127.305 41.9252 128.925 40.9445L134.839 45.8582C134.391 47.0289 134.157 48.2701 134.147 49.5236C134.147 49.7372 134.198 49.9372 134.21 50.1479L122.713 52.4489C121.272 49.0906 118.203 46.7122 114.594 46.1554L101.669 33.2211C103.104 32.1447 104.244 30.7227 104.981 29.087ZM116.497 56.5888C116.497 58.5399 114.917 60.1213 112.967 60.1213C111.019 60.1193 109.439 58.5391 109.438 56.5888C109.438 54.6376 111.018 53.0562 112.967 53.0562C114.917 53.0562 116.497 54.6376 116.497 56.5888ZM95.3177 21.2614C97.2673 21.2614 98.8475 22.8428 98.8475 24.7939C98.8475 26.7451 97.2673 28.3265 95.3177 28.3265C93.3681 28.3265 91.788 26.7451 91.788 24.7939C91.7896 22.844 93.369 21.2634 95.3177 21.2614ZM96.0172 37.5572L106.615 48.1624C104.968 49.4081 103.72 51.1092 103.028 53.0558H94.667C93.8335 50.7167 92.2045 48.7457 90.065 47.4872L96.0172 37.5572ZM74.0754 31.2356L85.5719 28.9347C86.4741 31.017 88.0195 32.7558 89.9807 33.8955L83.5731 44.5835L72.496 37.4703C73.5633 35.7932 74.1325 33.8475 74.1383 31.8595C74.1383 31.6459 74.0874 31.4459 74.0754 31.2356ZM88.2578 56.5888C88.2578 58.5399 86.6776 60.1213 84.728 60.1213C82.7792 60.1193 81.1999 58.5391 81.1982 56.5888C81.1982 54.6376 82.7784 53.0562 84.728 53.0562C86.6776 53.0562 88.2578 54.6376 88.2578 56.5888ZM63.5485 28.3269C65.4981 28.3269 67.0783 29.9084 67.0783 31.8595C67.0783 33.8106 65.4981 35.3921 63.5485 35.3921C61.599 35.3921 60.0188 33.8106 60.0188 31.8595C60.0204 29.9092 61.5998 28.329 63.5485 28.3269ZM59.7065 41.7096C61.8571 42.5972 64.2514 42.6986 66.4694 41.9965L77.3681 48.9949C76.2082 50.1322 75.3255 51.5219 74.789 53.0558H59.3681C58.5974 50.8691 57.1322 48.995 55.1963 47.7211L59.7065 41.7096ZM49.4286 60.1213C47.479 60.1213 45.8989 58.5399 45.8989 56.5888C45.9009 54.6385 47.4799 53.0578 49.4286 53.0562C51.3782 53.0562 52.9584 54.6376 52.9584 56.5888C52.9584 58.5399 51.3782 60.1213 49.4286 60.1213ZM60.0184 91.9157C58.0688 91.9157 56.4886 90.3339 56.4886 88.3832C56.4886 86.432 58.0688 84.8506 60.0184 84.8506C61.9679 84.8506 63.5481 86.4325 63.5481 88.3832C63.5465 90.3335 61.9671 91.9137 60.0184 91.9157ZM62.0259 77.9879C61.3648 77.8562 60.6922 77.7883 60.0184 77.7846C59.6688 77.7846 59.3387 77.8546 58.9979 77.8881L54.1878 66.0037C56.6032 64.7787 58.4568 62.6732 59.3677 60.1213H74.7885C75.4243 61.9007 76.5251 63.4767 77.9762 64.6852L62.0259 77.9879ZM88.9085 84.8502H69.9574C69.5806 83.792 69.0366 82.8009 68.3466 81.915L85.6827 67.4568L91.5861 80.7078C90.3798 81.8579 89.4623 83.2774 88.9085 84.8502ZM94.667 60.1213H103.028C103.862 62.4604 105.491 64.4314 107.63 65.6899L100.291 77.9312C99.8138 77.8492 99.3319 77.8004 98.8479 77.785C98.5745 77.785 98.3176 77.8455 98.0491 77.8658L91.9894 64.2641C93.1956 63.1137 94.1131 61.6941 94.667 60.1213ZM98.8475 91.9157C96.8979 91.9157 95.3177 90.3339 95.3177 88.3832C95.3177 86.432 96.8983 84.8506 98.8475 84.8506C100.797 84.8506 102.377 86.4325 102.377 88.3832C102.376 90.3335 100.796 91.9137 98.8475 91.9157ZM113.915 68.9377L123.773 76.8304C122.222 78.1551 121.088 79.9018 120.509 81.8583L108.593 84.2433C108.102 83.1143 107.419 82.0798 106.573 81.1855L113.915 68.9377ZM120.027 127.243C118.077 127.243 116.497 125.661 116.497 123.71C116.497 121.759 118.077 120.178 120.027 120.178C121.977 120.178 123.557 121.759 123.557 123.71C123.555 125.66 121.976 127.241 120.027 127.243ZM134.146 109.579C134.159 110.76 134.371 111.929 134.774 113.039L128.815 117.806C126.587 114.323 122.477 112.533 118.412 113.276L106.693 95.4363C107.74 94.268 108.513 92.8808 108.955 91.3755L120.871 88.9905C123.143 94.3604 129.326 96.8799 134.699 94.6253L139.054 100.666C136.003 102.603 134.153 105.964 134.146 109.579ZM137.584 76.9322L144.32 60.0791C144.461 60.0849 144.593 60.1213 144.736 60.1213C145.161 60.1048 145.585 60.0617 146.006 59.993L150.28 68.5257C146.877 70.363 144.75 73.9155 144.736 77.785C144.736 77.9283 144.773 78.0612 144.778 78.2032L140.032 80.1021C139.426 78.8995 138.595 77.8235 137.584 76.9322ZM144.736 113.112C142.787 113.112 141.206 111.531 141.206 109.579C141.208 107.629 142.787 106.049 144.736 106.047C146.686 106.047 148.266 107.628 148.266 109.579C148.266 111.531 146.686 113.112 144.736 113.112Z" fill="white"/>
</svg>
