<svg width="32" height="32" viewBox="0 0 32 32" fill="none" xmlns="http://www.w3.org/2000/svg">
<g id="assignment_ind_24px">
<path id="icon/action/assignment_ind_24px" fill-rule="evenodd" clip-rule="evenodd" d="M19.76 5.33332H25.3333C26.8 5.33332 28 6.53332 28 7.99999V26.6667C28 28.1333 26.8 29.3333 25.3333 29.3333H6.66667C5.2 29.3333 4 28.1333 4 26.6667V7.99999C4 6.53332 5.2 5.33332 6.66667 5.33332H12.24C12.8 3.78666 14.2667 2.66666 16 2.66666C17.7333 2.66666 19.2 3.78666 19.76 5.33332ZM17.3333 6.66666C17.3333 5.93332 16.7333 5.33332 16 5.33332C15.2667 5.33332 14.6667 5.93332 14.6667 6.66666C14.6667 7.39999 15.2667 7.99999 16 7.99999C16.7333 7.99999 17.3333 7.39999 17.3333 6.66666ZM16 10.6667C18.2133 10.6667 20 12.4533 20 14.6667C20 16.88 18.2133 18.6667 16 18.6667C13.7867 18.6667 12 16.88 12 14.6667C12 12.4533 13.7867 10.6667 16 10.6667ZM8 24.8V26.6667H24V24.8C24 22.1333 18.6667 20.6667 16 20.6667C13.3333 20.6667 8 22.1333 8 24.8Z" fill="#0CC289"/>
</g>
</svg>
