<svg width="180" height="180" viewBox="0 0 180 180" fill="none" xmlns="http://www.w3.org/2000/svg">
<path d="M179.323 175.354L135.932 131.948C143.144 123.703 146.869 112.978 146.321 102.037C145.772 91.0962 140.994 80.7968 132.994 73.3137C124.993 65.8306 114.398 61.7495 103.445 61.9323C92.4925 62.1151 82.0394 66.5475 74.2935 74.2934C66.5476 82.0393 62.1152 92.4925 61.9324 103.445C61.7496 114.398 65.8307 124.993 73.3138 132.993C80.7969 140.994 91.0963 145.772 102.037 146.321C112.978 146.869 123.703 143.143 131.948 135.931L175.354 179.323C175.893 179.784 176.585 180.025 177.294 179.998C178.002 179.971 178.674 179.677 179.176 179.176C179.677 178.674 179.971 178.002 179.998 177.294C180.025 176.585 179.784 175.893 179.323 175.354ZM78.2824 130.02C72.2974 124.032 68.5739 116.154 67.7463 107.728C66.9188 99.3024 69.0384 90.8503 73.7441 83.8122C78.4497 76.7741 85.4502 71.5853 93.5527 69.1301C101.655 66.6749 110.358 67.1051 118.179 70.3475C126 73.5899 132.455 79.4438 136.443 86.9117C140.432 94.3796 141.707 103 140.053 111.303C138.398 119.606 133.916 127.078 127.37 132.447C120.823 137.815 112.618 140.748 104.151 140.745C99.3441 140.759 94.5818 139.819 90.141 137.978C85.7002 136.137 81.6693 133.432 78.2824 130.02V130.02Z" fill="white"/>
<path d="M143.56 157.634H17.002C13.9859 157.634 11.0933 156.436 8.96063 154.303C6.82793 152.171 5.6298 149.278 5.6298 146.262V50.6682H157.634V146.375C157.634 147.121 157.931 147.837 158.459 148.365C158.987 148.893 159.703 149.19 160.449 149.19C161.196 149.19 161.912 148.893 162.44 148.365C162.968 147.837 163.264 147.121 163.264 146.375V17.002C163.26 12.4939 161.468 8.17157 158.28 4.98388C155.093 1.7962 150.77 0.00372721 146.262 0L17.002 0C12.4939 0.00372721 8.17157 1.7962 4.98388 4.98388C1.7962 8.17157 0.00372721 12.4939 0 17.002L0 146.262C0.00372721 150.77 1.7962 155.093 4.98388 158.28C8.17157 161.468 12.4939 163.26 17.002 163.264H143.56C144.306 163.264 145.022 162.968 145.55 162.44C146.078 161.912 146.375 161.196 146.375 160.449C146.375 159.703 146.078 158.987 145.55 158.459C145.022 157.931 144.306 157.634 143.56 157.634ZM17.002 5.6298H146.262C149.278 5.6298 152.171 6.82793 154.303 8.96063C156.436 11.0933 157.634 13.9859 157.634 17.002V45.0384H5.6298V17.002C5.6298 13.9859 6.82793 11.0933 8.96063 8.96063C11.0933 6.82793 13.9859 5.6298 17.002 5.6298V5.6298Z" fill="white"/>
<path d="M137.931 33.7788C139.601 33.7788 141.234 33.2835 142.622 32.3556C144.011 31.4277 145.093 30.1088 145.733 28.5657C146.372 27.0227 146.539 25.3247 146.213 23.6866C145.887 22.0485 145.083 20.5438 143.902 19.3628C142.721 18.1818 141.216 17.3775 139.578 17.0516C137.94 16.7258 136.242 16.893 134.699 17.5322C133.156 18.1714 131.837 19.2537 130.909 20.6425C129.981 22.0312 129.486 23.6639 129.486 25.3341C129.486 27.5737 130.376 29.7217 131.959 31.3054C133.543 32.8891 135.691 33.7788 137.931 33.7788ZM137.931 22.5192C138.487 22.5192 139.032 22.6843 139.495 22.9936C139.957 23.3029 140.318 23.7425 140.531 24.2569C140.744 24.7712 140.8 25.3372 140.691 25.8832C140.583 26.4293 140.315 26.9308 139.921 27.3245C139.527 27.7182 139.026 27.9863 138.48 28.0949C137.934 28.2035 137.368 28.1478 136.853 27.9347C136.339 27.7216 135.899 27.3609 135.59 26.8979C135.281 26.435 135.116 25.8908 135.116 25.3341C135.116 24.5875 135.412 23.8715 135.94 23.3436C136.468 22.8157 137.184 22.5192 137.931 22.5192Z" fill="white"/>
<path d="M115.412 33.7788C117.082 33.7788 118.715 33.2835 120.104 32.3556C121.492 31.4277 122.575 30.1088 123.214 28.5657C123.853 27.0227 124.02 25.3247 123.694 23.6866C123.369 22.0485 122.564 20.5438 121.383 19.3628C120.202 18.1818 118.698 17.3775 117.06 17.0516C115.421 16.7258 113.723 16.893 112.18 17.5322C110.637 18.1714 109.318 19.2537 108.391 20.6425C107.463 22.0312 106.967 23.6639 106.967 25.3341C106.967 27.5737 107.857 29.7217 109.441 31.3054C111.024 32.8891 113.172 33.7788 115.412 33.7788ZM115.412 22.5192C115.969 22.5192 116.513 22.6843 116.976 22.9936C117.439 23.3029 117.8 23.7425 118.013 24.2569C118.226 24.7712 118.281 25.3372 118.173 25.8832C118.064 26.4293 117.796 26.9308 117.402 27.3245C117.009 27.7182 116.507 27.9863 115.961 28.0949C115.415 28.2035 114.849 28.1478 114.335 27.9347C113.82 27.7216 113.381 27.3609 113.072 26.8979C112.762 26.435 112.597 25.8908 112.597 25.3341C112.597 24.5875 112.894 23.8715 113.422 23.3436C113.95 22.8157 114.665 22.5192 115.412 22.5192Z" fill="white"/>
<path d="M92.8925 33.7788C94.5627 33.7788 96.1954 33.2835 97.5841 32.3556C98.9728 31.4277 100.055 30.1088 100.694 28.5657C101.334 27.0227 101.501 25.3247 101.175 23.6866C100.849 22.0485 100.045 20.5438 98.8638 19.3628C97.6828 18.1818 96.1781 17.3775 94.54 17.0516C92.9018 16.7258 91.2039 16.893 89.6608 17.5322C88.1178 18.1714 86.7989 19.2537 85.871 20.6425C84.9431 22.0312 84.4478 23.6639 84.4478 25.3341C84.4478 27.5737 85.3375 29.7217 86.9212 31.3054C88.5049 32.8891 90.6528 33.7788 92.8925 33.7788ZM92.8925 22.5192C93.4492 22.5192 93.9934 22.6843 94.4564 22.9936C94.9193 23.3029 95.2801 23.7425 95.4931 24.2569C95.7062 24.7712 95.7619 25.3372 95.6533 25.8832C95.5447 26.4293 95.2766 26.9308 94.8829 27.3245C94.4892 27.7182 93.9877 27.9863 93.4416 28.0949C92.8956 28.2035 92.3296 28.1478 91.8153 27.9347C91.3009 27.7216 90.8613 27.3609 90.552 26.8979C90.2427 26.435 90.0776 25.8908 90.0776 25.3341C90.0776 24.5875 90.3741 23.8715 90.902 23.3436C91.4299 22.8157 92.1459 22.5192 92.8925 22.5192Z" fill="white"/>
<path d="M50.6685 92.8917V70.3725C50.6685 69.6259 50.372 68.9099 49.8441 68.382C49.3162 67.8542 48.6002 67.5576 47.8537 67.5576H25.3345C24.5879 67.5576 23.8719 67.8542 23.344 68.382C22.8161 68.9099 22.5196 69.6259 22.5196 70.3725V92.8917C22.5196 93.6382 22.8161 94.3542 23.344 94.8821C23.8719 95.41 24.5879 95.7066 25.3345 95.7066H47.8537C48.6002 95.7066 49.3162 95.41 49.8441 94.8821C50.372 94.3542 50.6685 93.6382 50.6685 92.8917ZM45.0388 90.0768H28.1494V73.1874H45.0388V90.0768Z" fill="white"/>
<path d="M125.263 85.8544C124.516 85.8544 123.8 86.1509 123.272 86.6788C122.744 87.2067 122.448 87.9227 122.448 88.6693V119.633C122.448 120.38 122.744 121.096 123.272 121.624C123.8 122.151 124.516 122.448 125.263 122.448C126.009 122.448 126.725 122.151 127.253 121.624C127.781 121.096 128.077 120.38 128.077 119.633V88.6693C128.077 87.9227 127.781 87.2067 127.253 86.6788C126.725 86.1509 126.009 85.8544 125.263 85.8544Z" fill="white"/>
<path d="M94.2988 85.8544H80.2243C79.4778 85.8544 78.7618 86.1509 78.2339 86.6788C77.706 87.2067 77.4094 87.9227 77.4094 88.6693C77.4094 89.4158 77.706 90.1318 78.2339 90.6597C78.7618 91.1876 79.4778 91.4842 80.2243 91.4842H91.4839V116.818H80.2243C79.4778 116.818 78.7618 117.115 78.2339 117.643C77.706 118.171 77.4094 118.887 77.4094 119.633C77.4094 120.38 77.706 121.096 78.2339 121.624C78.7618 122.151 79.4778 122.448 80.2243 122.448H94.2988C95.0454 122.448 95.7614 122.151 96.2893 121.624C96.8171 121.096 97.1137 120.38 97.1137 119.633V88.6693C97.1137 87.9227 96.8171 87.2067 96.2893 86.6788C95.7614 86.1509 95.0454 85.8544 94.2988 85.8544Z" fill="white"/>
<path d="M22.5196 115.411V137.93C22.5196 138.677 22.8161 139.393 23.344 139.92C23.8719 140.448 24.5879 140.745 25.3345 140.745C26.081 140.745 26.797 140.448 27.3249 139.92C27.8528 139.393 28.1494 138.677 28.1494 137.93V115.411C28.1494 114.664 27.8528 113.948 27.3249 113.42C26.797 112.893 26.081 112.596 25.3345 112.596C24.5879 112.596 23.8719 112.893 23.344 113.42C22.8161 113.948 22.5196 114.664 22.5196 115.411Z" fill="white"/>
<path d="M54.8912 118.226C55.6378 118.226 56.3537 117.929 56.8816 117.401C57.4095 116.873 57.7061 116.157 57.7061 115.411C57.7061 114.664 57.4095 113.948 56.8816 113.42C56.3537 112.893 55.6378 112.596 54.8912 112.596H47.854C47.1074 112.596 46.3914 112.893 45.8635 113.42C45.3356 113.948 45.0391 114.664 45.0391 115.411V137.93C45.0391 138.677 45.3356 139.393 45.8635 139.92C46.3914 140.448 47.1074 140.745 47.854 140.745H66.1508C66.8974 140.745 67.6133 140.448 68.1412 139.92C68.6691 139.393 68.9657 138.677 68.9657 137.93C68.9657 137.183 68.6691 136.467 68.1412 135.94C67.6133 135.412 66.8974 135.115 66.1508 135.115H50.6689V118.226H54.8912Z" fill="white"/>
</svg>
