<svg width="180" height="180" viewBox="0 0 180 180" fill="none" xmlns="http://www.w3.org/2000/svg">
<path d="M168.282 101.792C159.411 98.1534 149.218 101.719 144.551 110.095L128.665 103.554C129.296 99.3867 126.997 95.3281 123.099 93.7233C119.201 92.1184 114.711 93.3817 112.222 96.7844L95.7136 89.9862L112.195 83.1223C114.701 86.5064 119.192 87.7468 123.079 86.1277C126.967 84.5085 129.25 80.4471 128.611 76.2856L144.465 69.6832C149.358 78.4364 160.23 81.8562 169.254 77.4803C178.278 73.1044 182.324 62.452 178.479 53.1916C174.635 43.9311 164.233 39.2737 154.761 42.5735C145.29 45.8732 140.036 55.9854 142.781 65.6289L126.92 72.2341C124.414 68.8472 119.921 67.6068 116.032 69.2259C112.142 70.8451 109.859 74.9094 110.501 79.0723L94.0255 85.9333L100.821 69.4388C101.271 69.5074 101.724 69.5417 102.179 69.5417C106.143 69.5475 109.659 67.0023 110.892 63.2352C112.125 59.4695 110.794 55.3395 107.595 53.0001L114.142 37.1086C121.121 39.0736 128.609 36.8757 133.418 31.4523C138.227 26.0275 139.51 18.3319 136.723 11.6409C133.537 3.99103 125.741 -0.69351 117.488 0.0839127C109.236 0.862764 102.452 6.92208 100.754 15.0321C99.0543 23.1436 102.837 31.4137 110.082 35.4366L103.54 51.318C99.3716 50.6892 95.312 52.9858 93.7067 56.8829C92.1 60.78 93.3651 65.2702 96.7671 67.7582L89.9687 84.2613L83.1031 67.7854C86.488 65.2802 87.7287 60.79 86.1092 56.9029C84.4896 53.0158 80.4271 50.735 76.2646 51.3738L69.6577 35.5181C78.4231 30.6092 81.838 19.7167 77.4439 10.6834C73.0483 1.65162 62.3704 -2.3884 53.0961 1.47441C43.8204 5.33723 39.1676 15.7595 42.4868 25.2401C45.8059 34.7221 55.945 39.9697 65.6052 37.2058L72.2121 53.0644C69.0302 55.4167 67.7194 59.5439 68.9601 63.3009C70.2009 67.0566 73.7145 69.5918 77.6712 69.586C78.1329 69.586 78.5946 69.5503 79.052 69.4803L85.9148 85.9505L69.4161 79.1566C70.0451 74.9894 67.7479 70.9308 63.8498 69.3245C59.9517 67.7197 55.4604 68.983 52.9718 72.3856L37.0749 65.8404C39.7737 56.2112 34.4947 46.1476 25.0347 42.8936C15.576 39.6381 5.21967 44.3227 1.42021 53.5731C-2.38069 62.8236 1.69323 73.4331 10.7087 77.7647C19.7257 82.0962 30.5566 78.6479 35.4067 69.9019L51.2879 76.4414C50.6589 80.6086 52.956 84.6672 56.8541 86.272C60.7522 87.8769 65.2436 86.6136 67.7322 83.2109L84.2395 90.0091L67.7594 96.873C65.2536 93.4889 60.7622 92.2485 56.8741 93.8676C52.9875 95.4868 50.7047 99.5482 51.3436 103.71L35.4853 110.314C30.5852 101.578 19.7214 98.1763 10.713 102.559C1.70467 106.941 -2.32351 117.586 1.52884 126.832C5.3812 136.077 15.7761 140.716 25.2334 137.409C34.6891 134.102 39.9252 123.997 37.1735 114.366L53.0375 107.76C55.5419 111.147 60.0347 112.39 63.9242 110.769C67.8137 109.15 70.0951 105.086 69.4547 100.923L85.9291 94.062L79.1321 110.558C74.9638 109.929 70.9042 112.226 69.2989 116.123C67.6936 120.02 68.9573 124.51 72.3593 126.998L65.8139 142.887C56.1694 140.174 46.0833 145.452 42.8155 154.92C39.5464 164.386 44.2293 174.76 53.4921 178.572C62.7563 182.385 73.3871 178.315 77.7341 169.292C82.0796 160.267 78.6332 149.42 69.875 144.559L76.4175 128.677C76.8678 128.746 77.3224 128.78 77.7769 128.78C81.7394 128.784 85.2558 126.239 86.488 122.474C87.7202 118.708 86.3894 114.576 83.1903 112.239L89.9901 95.734L96.8558 112.21C93.4594 114.711 92.2101 119.207 93.8325 123.1C95.4549 126.991 99.526 129.272 103.693 128.622L110.3 144.477C101.563 149.376 98.1623 160.236 102.546 169.242C106.929 178.247 117.577 182.272 126.824 178.421C136.071 174.568 140.71 164.176 137.401 154.724C134.093 145.27 123.985 140.036 114.354 142.788L107.745 126.931C111.133 124.426 112.375 119.934 110.756 116.046C109.135 112.157 105.071 109.875 100.907 110.516L94.044 94.0448L110.543 100.839C109.912 105.006 112.211 109.066 116.109 110.671C120.007 112.276 124.497 111.012 126.986 107.61L142.88 114.155C140.129 123.931 145.596 134.135 155.26 137.262C164.926 140.39 175.335 135.324 178.837 125.791C182.338 116.256 177.678 105.659 168.285 101.792H168.282ZM155.379 47.0336C162.782 43.9497 171.283 47.4509 174.368 54.8522C177.451 62.2534 173.95 70.7536 166.547 73.8361C159.142 76.9201 150.642 73.4188 147.557 66.0176C146.05 62.4663 146.029 58.4592 147.498 54.8908C148.968 51.3238 151.807 48.4942 155.379 47.0336ZM115.144 75.8626C116.01 73.759 118.243 72.56 120.476 72.9987C122.709 73.4388 124.32 75.3938 124.324 77.6689C124.328 79.944 122.726 81.9047 120.495 82.3535C118.263 82.8022 116.026 81.6118 115.151 79.5125C114.661 78.3449 114.66 77.0316 115.144 75.864V75.8626ZM105.858 24.4941C103.194 18.1004 105.418 10.7163 111.172 6.85635C116.924 2.99782 124.603 3.73808 129.51 8.62555C134.419 13.513 135.191 21.1858 131.354 26.9521C127.516 32.7199 120.139 34.9736 113.733 32.3355C110.167 30.8778 107.331 28.0554 105.858 24.4941ZM97.7706 58.5621C98.7741 56.1269 101.562 54.9665 103.999 55.9697C106.434 56.9715 107.595 59.7596 106.592 62.1948C105.59 64.63 102.801 65.7904 100.365 64.7886C97.9307 63.784 96.77 60.9987 97.7678 58.5621H97.7706ZM47.0038 24.6127C43.9205 17.2101 47.4226 8.7113 54.8258 5.62733C62.2289 2.5448 70.7298 6.04606 73.8145 13.4473C76.8978 20.8485 73.3971 29.3473 65.994 32.4313C62.4404 33.9389 58.4308 33.9618 54.8629 32.4913C51.2936 31.0222 48.4619 28.184 47.001 24.6127H47.0038ZM75.84 64.8372C73.7359 63.9697 72.5366 61.7389 72.9769 59.5067C73.4157 57.2745 75.3712 55.6625 77.6469 55.6582C79.9225 55.6539 81.8852 57.2573 82.334 59.4881C82.7814 61.7175 81.5921 63.954 79.4908 64.83C78.3244 65.3202 77.0093 65.3216 75.84 64.8372ZM24.4572 74.1205C18.0618 76.7829 10.6759 74.5593 6.81494 68.8086C2.954 63.058 3.69446 55.3809 8.58316 50.4735C13.4719 45.566 21.148 44.7943 26.9158 48.6314C32.6836 52.467 34.9379 59.8425 32.3005 66.2477C30.8425 69.8133 28.0179 72.6486 24.4572 74.1205ZM58.5337 82.2049C56.098 81.2016 54.9358 78.4149 55.9393 75.9798C56.9428 73.5446 59.7302 72.3828 62.166 73.386C64.6017 74.3892 65.7639 77.1759 64.7604 79.6111C63.7555 82.0462 60.9709 83.2066 58.5337 82.2077V82.2049ZM24.5744 132.959C17.1713 136.043 8.66893 132.542 5.58561 125.14C2.50087 117.739 6.00301 109.239 13.4061 106.156C20.8092 103.072 29.3116 106.574 32.3949 113.975C33.9044 117.526 33.9258 121.535 32.4563 125.103C30.9854 128.672 28.148 131.501 24.5744 132.962V132.959ZM64.809 104.128C63.9428 106.232 61.71 107.431 59.4772 106.991C57.2444 106.552 55.6334 104.597 55.6291 102.322C55.6234 100.047 57.2272 98.0848 59.4586 97.6375C61.69 97.1888 63.927 98.3792 64.8019 100.479C65.2922 101.646 65.295 102.962 64.809 104.131V104.128ZM74.0947 155.501C76.7735 161.909 74.5478 169.318 68.7814 173.19C63.015 177.063 55.3132 176.323 50.3916 171.421C45.4686 166.521 44.6967 158.825 48.5476 153.045C52.3986 147.263 59.7988 145.009 66.2199 147.66C69.7863 149.117 72.6224 151.94 74.0947 155.501V155.501ZM82.1825 121.433C81.179 123.867 78.3916 125.029 75.9558 124.026C73.5201 123.022 72.3579 120.236 73.3614 117.801C74.3649 115.365 77.1523 114.205 79.5881 115.207C82.0224 116.213 83.1831 118.997 82.1854 121.433H82.1825ZM132.949 155.383C135.409 161.288 133.714 168.106 128.775 172.171C123.838 176.239 116.819 176.594 111.495 173.049C106.17 169.503 103.793 162.892 105.643 156.77C107.491 150.647 113.13 146.455 119.528 146.448C125.405 146.414 130.715 149.948 132.952 155.383H132.949ZM104.114 115.158C106.366 116.093 107.541 118.581 106.832 120.913C106.124 123.244 103.761 124.659 101.371 124.181C98.9814 123.705 97.3418 121.495 97.5805 119.07C97.8206 116.644 99.8605 114.797 102.298 114.797C102.921 114.797 103.538 114.919 104.114 115.158V115.158ZM121.438 106.598C119.337 107.473 116.911 106.742 115.643 104.853C114.374 102.964 114.618 100.441 116.223 98.8294C117.83 97.2188 120.35 96.9644 122.246 98.2249C124.14 99.4854 124.88 101.908 124.014 104.011C123.535 105.183 122.607 106.115 121.438 106.599V106.598ZM174.509 124.804C171.87 131.21 165.073 134.858 158.276 133.52C151.479 132.183 146.573 126.231 146.559 119.305C146.545 112.379 151.426 106.408 158.219 105.042C165.012 103.677 171.822 107.3 174.486 113.693C175.977 117.246 175.986 121.246 174.509 124.804V124.804Z" fill="white"/>
</svg>
