<svg width="180" height="180" viewBox="0 0 180 180" fill="none" xmlns="http://www.w3.org/2000/svg">
<path d="M171 0H9C6.61389 0.0027294 4.32629 0.951817 2.63905 2.63905C0.951817 4.32629 0.0027294 6.61389 0 9V141C0.0027294 143.386 0.951817 145.674 2.63905 147.361C4.32629 149.048 6.61389 149.997 9 150H70.9679L63.7679 174H54V180H126V174H116.232L109.032 150H171C173.386 149.997 175.674 149.048 177.361 147.361C179.048 145.674 179.997 143.386 180 141V9C179.997 6.61389 179.048 4.32629 177.361 2.63905C175.674 0.951817 173.386 0.0027294 171 0V0ZM109.968 174H70.0321L77.2321 150H102.768L109.968 174ZM174 141C173.999 141.795 173.683 142.558 173.12 143.12C172.558 143.683 171.795 143.999 171 144H9C8.20463 143.999 7.4421 143.683 6.87968 143.12C6.31727 142.558 6.00091 141.795 6 141V132H174V141ZM174 126H6V9C6.00091 8.20463 6.31727 7.4421 6.87968 6.87968C7.4421 6.31727 8.20463 6.00091 9 6H171C171.795 6.00091 172.558 6.31727 173.12 6.87968C173.683 7.4421 173.999 8.20463 174 9V126Z" fill="white"/>
<path d="M159 51H119.485C119.091 51.0011 118.7 50.9239 118.336 50.7731C117.972 50.6222 117.641 50.4006 117.363 50.1211L108.878 41.636C108.044 40.7976 107.053 40.133 105.96 39.6805C104.868 39.228 103.697 38.9967 102.514 39H68.9996C66.6135 39.0027 64.3259 39.9518 62.6386 41.639C60.9514 43.3263 60.0023 45.6139 59.9996 48V111C60.0023 113.386 60.9514 115.674 62.6386 117.361C64.3259 119.048 66.6135 119.997 68.9996 120H159C161.386 119.997 163.673 119.048 165.361 117.361C167.048 115.674 167.997 113.386 168 111V60C167.997 57.6139 167.048 55.3263 165.361 53.639C163.673 51.9518 161.386 51.0027 159 51V51ZM162 111C161.999 111.795 161.682 112.558 161.12 113.12C160.557 113.683 159.795 113.999 159 114H68.9996C68.2042 113.999 67.4417 113.683 66.8793 113.12C66.3169 112.558 66.0005 111.795 65.9996 111V48C66.0005 47.2046 66.3169 46.4421 66.8793 45.8797C67.4417 45.3172 68.2042 45.0009 68.9996 45H102.514C102.908 44.9989 103.299 45.076 103.663 45.2269C104.027 45.3777 104.358 45.5994 104.636 45.8789L113.121 54.364C113.955 55.2023 114.946 55.867 116.039 56.3194C117.131 56.7719 118.302 57.0032 119.485 57H159C159.795 57.0009 160.557 57.3172 161.12 57.8797C161.682 58.4421 161.999 59.2046 162 60V111Z" fill="white"/>
<path d="M93.8792 66.8787L76.7582 84.0001L93.8792 101.121L98.122 96.8787L85.243 84.0001L98.122 71.1215L93.8792 66.8787Z" fill="white"/>
<path d="M105.403 97.5963L120.414 70.6012L125.658 73.517L110.647 100.512L105.403 97.5963Z" fill="white"/>
<path d="M129.878 71.1215L142.757 84.0001L129.878 96.8787L134.121 101.121L151.242 84.0001L134.121 66.8787L129.878 71.1215Z" fill="white"/>
<path d="M70.0469 17.9999L74.9051 29.3321L85.6188 33.7713L97.0859 29.1892L103.018 35.1213L107.26 30.8786L98.5323 22.1497L85.6601 27.2936L79.4576 24.7237L74.0028 11.9999H57.9956L52.5412 24.7237L46.3383 27.2936L33.4664 22.1497L22.1493 33.4672L27.2928 46.3391L24.7229 52.5416L11.9992 57.9963V74.0036L24.7226 79.4583L27.2928 85.6608L22.1489 98.5327L33.4661 109.85L46.3383 104.706L52.8506 107.405L55.1478 101.862L46.3796 98.2286L34.9124 102.811L29.1884 97.0867L33.7706 85.6196L29.3309 74.9054L17.9992 70.0477V61.9522L29.3313 57.0944L33.7706 46.3803L29.1884 34.9132L34.9128 29.1892L46.3796 33.7713L57.0933 29.3321L61.9514 17.9999H70.0469Z" fill="white"/>
<path d="M55.335 44.4931L52.665 39.12C47.6602 41.6048 43.4486 45.4375 40.5043 50.1865C37.56 54.9356 36 60.4122 36 65.9999C36 71.5876 37.56 77.0643 40.5043 81.8133C43.4486 86.5623 47.6602 90.395 52.665 92.8798L55.335 87.5067C51.3304 85.5189 47.9603 82.4524 45.6043 78.6526C43.2483 74.8529 42 70.4708 42 65.9999C42 61.529 43.2483 57.1469 45.6043 53.3472C47.9603 49.5474 51.3304 46.4809 55.335 44.4931V44.4931Z" fill="white"/>
</svg>
