<svg width="180" height="174" viewBox="0 0 180 174" fill="none" xmlns="http://www.w3.org/2000/svg">
<path d="M121.189 122.37L109.07 119.767C107.688 119.469 106.722 118.306 106.722 116.937V106.751C110.224 102.936 112.356 97.9209 112.356 92.4314V81.5401C112.356 71.1271 103.591 62.6553 92.8173 62.6553H87.183C76.4091 62.6553 67.6438 71.1267 67.6438 81.5401V92.4314C67.6438 97.9209 69.7763 102.936 73.2781 106.751V116.937C73.2781 118.306 72.3124 119.469 70.9298 119.767L58.8113 122.37C52.4003 123.747 47.9233 129.141 47.9233 135.488V171.395C47.9233 172.802 49.1034 173.942 50.5591 173.942C52.0148 173.942 53.1949 172.802 53.1949 171.395V135.488C53.1949 131.548 55.9748 128.198 59.9549 127.343L72.0734 124.741C75.8865 123.921 78.5494 120.713 78.5494 116.938V110.981C81.9008 112.921 85.8169 114.039 89.9998 114.039C94.1826 114.039 98.0984 112.921 101.45 110.981V116.938C101.45 120.713 104.113 123.922 107.927 124.741L120.045 127.343C124.025 128.198 126.805 131.548 126.805 135.488V171.395C126.805 172.802 127.985 173.942 129.441 173.942C130.896 173.942 132.077 172.802 132.077 171.395V135.488C132.077 129.141 127.6 123.747 121.189 122.37ZM72.9154 92.4318V81.5405C72.9154 73.9369 79.3156 67.7507 87.183 67.7507H92.8173C100.684 67.7507 107.085 73.9365 107.085 81.5405V92.4318C107.085 101.537 99.4205 108.944 90.0001 108.944C80.5797 108.944 72.9154 101.537 72.9154 92.4318V92.4318Z" fill="white"/>
<path d="M168.705 126.604C161.629 114.241 151.736 100.697 139.853 86.9841C151.906 73.0731 161.912 59.3408 168.994 46.8618C180.821 26.0225 183.166 11.2307 175.773 4.08568C168.315 -3.12254 152.829 -0.760784 130.991 10.9165C110.374 21.9403 86.5838 40.0317 64.0015 61.8577C56.7695 68.8476 49.9364 75.9573 43.6101 83.0476C31.9882 69.567 22.358 56.2997 15.5446 44.2637C5.48415 26.4916 2.64731 12.8187 7.95515 7.68826C11.9918 3.78711 21.0503 4.34791 33.4618 9.26639C46.5724 14.462 62.4463 24.0551 79.3683 37.0075C80.5095 37.8808 82.1672 37.695 83.0711 36.5921C83.975 35.4892 83.7824 33.887 82.6413 33.0133C65.3377 19.7681 49.0233 9.92637 35.4619 4.55205C20.7463 -1.27913 9.94572 -1.44115 4.22775 4.08568C-3.14517 11.2117 -0.831273 25.9505 10.9199 46.709C18.0036 59.2226 28.0429 73.0123 40.1477 86.9834C28.265 100.697 18.3716 114.241 11.2949 126.603C-0.78699 147.711 -3.23092 162.678 4.22739 169.886C7.0182 172.583 10.9874 173.928 16.0239 173.927C22.4803 173.927 30.69 171.717 40.4098 167.314C41.7281 166.717 42.2957 165.2 41.6778 163.926C41.06 162.652 39.4905 162.103 38.1725 162.7C23.4928 169.35 12.4789 170.656 7.95444 166.283C2.57315 161.082 5.54601 147.17 15.9072 129.069C22.7133 117.179 32.2054 104.15 43.6104 90.9219C49.4686 97.4888 55.7612 104.073 62.4031 110.562C62.9187 111.065 63.5977 111.317 64.277 111.317C64.9469 111.317 65.6171 111.072 66.1309 110.581C67.1655 109.591 67.1747 107.978 66.1509 106.978C59.3846 100.368 52.9869 93.6631 47.056 86.9858C53.447 79.7915 60.376 72.5663 67.7285 65.46C75.0783 58.3564 82.5513 51.6614 89.9921 45.4865C97.4975 51.71 104.984 58.4172 112.271 65.46C119.624 72.5663 126.553 79.7915 132.944 86.9858C126.906 93.783 120.386 100.609 113.484 107.335C112.459 108.334 112.466 109.947 113.499 110.938C114.533 111.928 116.202 111.922 117.227 110.923C124.005 104.317 130.423 97.6111 136.39 90.923C147.794 104.15 157.286 117.18 164.092 129.07C174.453 147.171 177.426 161.082 172.045 166.283C167.521 170.656 156.507 169.351 141.827 162.701C140.509 162.104 138.94 162.652 138.322 163.926C137.704 165.2 138.272 166.717 139.59 167.314C149.311 171.718 157.519 173.928 163.976 173.928C169.012 173.928 172.982 172.583 175.772 169.886C183.231 162.678 180.787 147.711 168.705 126.604ZM115.999 61.8577C108.826 54.9247 101.46 48.3102 94.0692 42.1533C107.756 31.1291 121.239 21.9535 133.542 15.3747C152.27 5.36048 166.664 2.48752 172.045 7.68826C177.37 12.835 174.502 26.5633 164.372 44.4111C157.56 56.4138 147.963 69.6261 136.391 83.048C130.065 75.9576 123.232 68.8479 115.999 61.8577V61.8577Z" fill="white"/>
</svg>
