<svg width="32" height="32" viewBox="0 0 32 32" fill="none" xmlns="http://www.w3.org/2000/svg">
<g id="widgets_24px">
<path id="icon/device/widgets_24px" fill-rule="evenodd" clip-rule="evenodd" d="M14.9983 9.44833L20.665 3.795C21.185 3.275 22.0383 3.275 22.5583 3.795L28.2117 9.44833C28.7317 9.96833 28.7317 10.8083 28.2117 11.3283L22.545 16.995C22.025 17.515 21.185 17.515 20.665 16.995L14.9983 11.3283C14.4783 10.8083 14.4783 9.96833 14.9983 9.44833ZM3.39844 5.92832V13.9283C3.39844 14.6616 3.99844 15.2617 4.73177 15.2617H12.7318C13.4651 15.2617 14.0651 14.6616 14.0651 13.9283V5.92832C14.0651 5.19498 13.4651 4.59498 12.7318 4.59498H4.73177C3.99844 4.59498 3.39844 5.19498 3.39844 5.92832ZM12.7318 28.595H4.73177C3.99844 28.595 3.39844 27.995 3.39844 27.2617V19.2617C3.39844 18.5283 3.99844 17.9283 4.73177 17.9283H12.7318C13.4651 17.9283 14.0651 18.5283 14.0651 19.2617V27.2617C14.0651 27.995 13.4651 28.595 12.7318 28.595ZM16.7318 27.2617V19.2617C16.7318 18.5283 17.3318 17.9283 18.0651 17.9283H26.0651C26.7984 17.9283 27.3984 18.5283 27.3984 19.2617V27.2617C27.3984 27.995 26.7984 28.595 26.0651 28.595H18.0651C17.3318 28.595 16.7318 27.995 16.7318 27.2617Z" fill="#0CC289"/>
</g>
</svg>
