<svg width="80" height="80" viewBox="0 0 80 80" fill="none" xmlns="http://www.w3.org/2000/svg">
<path d="M58.829 37.5H41.169C40.4408 41.6279 40.0533 45.8086 40.0103 50H59.9878C59.9448 45.8086 59.5572 41.6279 58.829 37.5Z" fill="#C4A2FC"/>
<path d="M22.5298 50H37.5098C37.5489 45.8117 37.9112 41.6326 38.5935 37.5H26.1985C23.9852 41.3097 22.7265 45.5984 22.5298 50Z" fill="#C4A2FC"/>
<path d="M41.169 65H58.829C59.5572 60.8721 59.9448 56.6914 59.9878 52.5H40.0103C40.0533 56.6914 40.4408 60.8721 41.169 65Z" fill="#C4A2FC"/>
<path d="M49.998 23.75C48.6568 23.7512 47.3174 23.8498 45.9905 24.045C43.878 27.3937 42.4147 31.11 41.6768 35H58.3193C57.5814 31.11 56.118 27.3937 54.0055 24.045C52.6786 23.8498 51.3392 23.7512 49.998 23.75Z" fill="#C4A2FC"/>
<path d="M49.998 78.75C51.3392 78.7488 52.6786 78.6502 54.0055 78.455C56.118 75.1063 57.5814 71.39 58.3193 67.5H41.6768C42.4147 71.39 43.878 75.1063 45.9905 78.455C47.3174 78.6502 48.6568 78.7488 49.998 78.75Z" fill="#C4A2FC"/>
<path d="M73.8299 37.5H61.4336C62.1166 41.6325 62.4789 45.8116 62.5173 50H77.4973C77.3016 45.5984 76.0433 41.3096 73.8299 37.5Z" fill="#C4A2FC"/>
<path d="M27.8325 67.5C31.4686 72.4527 36.6539 76.0498 42.5662 77.7212C40.9354 74.4918 39.7596 71.052 39.0725 67.5H27.8325Z" fill="#C4A2FC"/>
<path d="M27.8325 35.0001H39.0725C39.7596 31.448 40.9354 28.0083 42.5662 24.7788C36.6539 26.4502 31.4686 30.0474 27.8325 35.0001Z" fill="#C4A2FC"/>
<path d="M72.1659 67.5H60.9259C60.2388 71.052 59.063 74.4918 57.4321 77.7212C63.3445 76.0498 68.5298 72.4527 72.1659 67.5Z" fill="#C4A2FC"/>
<path d="M77.4973 52.5H62.5173C62.4789 56.6884 62.1166 60.8675 61.4336 65H73.8299C76.0433 61.1904 77.3016 56.9016 77.4973 52.5Z" fill="#C4A2FC"/>
<path d="M26.1985 65H38.5935C37.9112 60.8674 37.5489 56.6883 37.5098 52.5H22.5298C22.7265 56.9016 23.9852 61.1903 26.1985 65Z" fill="#C4A2FC"/>
<path d="M57.4321 24.7788C59.063 28.0083 60.2388 31.448 60.9259 35.0001H72.1659C68.5298 30.0474 63.3445 26.4502 57.4321 24.7788Z" fill="#C4A2FC"/>
<path d="M55 1.25H6.25C5.25544 1.25 4.30161 1.64509 3.59835 2.34835C2.89509 3.05161 2.5 4.00544 2.5 5V53.75C2.5 54.7446 2.89509 55.6984 3.59835 56.4016C4.30161 57.1049 5.25544 57.5 6.25 57.5H55C55.9946 57.5 56.9484 57.1049 57.6516 56.4016C58.3549 55.6984 58.75 54.7446 58.75 53.75V5C58.75 4.00544 58.3549 3.05161 57.6516 2.34835C56.9484 1.64509 55.9946 1.25 55 1.25ZM6.25 3.75H55C55.3315 3.75 55.6495 3.8817 55.8839 4.11612C56.1183 4.35054 56.25 4.66848 56.25 5V10H5V5C5 4.66848 5.1317 4.35054 5.36612 4.11612C5.60054 3.8817 5.91848 3.75 6.25 3.75ZM55 55H6.25C5.91848 55 5.60054 54.8683 5.36612 54.6339C5.1317 54.3995 5 54.0815 5 53.75V12.5H56.25V53.75C56.25 54.0815 56.1183 54.3995 55.8839 54.6339C55.6495 54.8683 55.3315 55 55 55Z" fill="#151A6A"/>
<path d="M49.839 25.0888L31.089 17.5888C30.7901 17.4714 30.4579 17.4714 30.159 17.5888L11.409 25.0888C11.1766 25.1814 10.9774 25.3415 10.837 25.5486C10.6966 25.7556 10.6216 26 10.6216 26.2501C10.6216 26.5002 10.6966 26.7446 10.837 26.9516C10.9774 27.1586 11.1766 27.3188 11.409 27.4113L18.1252 30.0963V41.2501C18.1252 41.4729 18.1848 41.6917 18.2978 41.8838C18.4107 42.0759 18.573 42.2343 18.7677 42.3426C22.3904 44.3708 26.4728 45.4358 30.6246 45.4358C34.7764 45.4358 38.8588 44.3708 42.4815 42.3426C42.6765 42.2344 42.839 42.0761 42.9522 41.884C43.0654 41.6919 43.1251 41.473 43.1252 41.2501V30.0963L49.839 27.4113C50.0713 27.3188 50.2706 27.1586 50.411 26.9516C50.5513 26.7446 50.6264 26.5002 50.6264 26.2501C50.6264 26 50.5513 25.7556 50.411 25.5486C50.2706 25.3415 50.0713 25.1814 49.839 25.0888ZM40.6252 40.5001C37.5343 42.0986 34.1051 42.9329 30.6252 42.9329C27.1454 42.9329 23.7162 42.0986 20.6252 40.5001V31.0963L23.1252 32.0963V37.5001C23.1252 37.8316 23.2569 38.1495 23.4913 38.384C23.7258 38.6184 24.0437 38.7501 24.3752 38.7501C24.7068 38.7501 25.0247 38.6184 25.2591 38.384C25.4935 38.1495 25.6252 37.8316 25.6252 37.5001V33.0963L30.1602 34.9113C30.4589 35.03 30.7916 35.03 31.0902 34.9113L40.6252 31.0963V40.5001ZM30.6252 32.4026L26.8315 30.8851L31.4052 27.2251C31.5346 27.123 31.6425 26.9963 31.7227 26.8523C31.8029 26.7083 31.8538 26.5499 31.8726 26.3862C31.8913 26.2224 31.8775 26.0566 31.8319 25.8982C31.7863 25.7398 31.7099 25.592 31.607 25.4633C31.504 25.3346 31.3767 25.2275 31.2322 25.1482C31.0877 25.0689 30.929 25.019 30.7651 25.0012C30.6013 24.9835 30.4356 24.9983 30.2775 25.0449C30.1194 25.0915 29.9721 25.1689 29.844 25.2726L24.164 29.8176L15.2402 26.2501L30.6252 20.0963L46.0102 26.2501L30.6252 32.4026Z" fill="#151A6A"/>
</svg>
