<svg width="80" height="80" viewBox="0 0 80 80" fill="none" xmlns="http://www.w3.org/2000/svg">
<path d="M41.7155 12.5888L29.2155 7.58883C28.9166 7.47137 28.5843 7.47137 28.2855 7.58883L15.7854 12.5888C15.5531 12.6814 15.3538 12.8415 15.2135 13.0486C15.0731 13.2556 14.998 13.5 14.998 13.7501C14.998 14.0002 15.0731 14.2446 15.2135 14.4516C15.3538 14.6586 15.5531 14.8188 15.7854 14.9113L20.0005 16.5963V23.7501C20.0004 23.9558 20.0512 24.1584 20.1482 24.3398C20.2452 24.5212 20.3856 24.6759 20.5567 24.7901C22.9813 26.4127 25.833 27.2788 28.7505 27.2788C31.6679 27.2788 34.5196 26.4127 36.9442 24.7901C37.1154 24.6759 37.2557 24.5212 37.3527 24.3398C37.4497 24.1584 37.5005 23.9558 37.5005 23.7501V16.5963L41.7155 14.9113C41.9478 14.8188 42.1471 14.6586 42.2875 14.4516C42.4278 14.2446 42.5029 14.0002 42.5029 13.7501C42.5029 13.5 42.4278 13.2556 42.2875 13.0486C42.1471 12.8415 41.9478 12.6814 41.7155 12.5888ZM35.0005 23.0601C33.1095 24.1842 30.9503 24.7775 28.7505 24.7775C26.5506 24.7775 24.3914 24.1842 22.5005 23.0601V17.5963L23.7505 18.0963V21.2501C23.7505 21.5816 23.8821 21.8995 24.1166 22.134C24.351 22.3684 24.6689 22.5001 25.0005 22.5001C25.332 22.5001 25.6499 22.3684 25.8843 22.134C26.1188 21.8995 26.2505 21.5816 26.2505 21.2501V19.0963L28.2855 19.9113C28.5841 20.03 28.9168 20.03 29.2155 19.9113L35.0005 17.5963V23.0601ZM28.7505 17.4038L27.403 16.8651L29.6342 14.6338C29.8619 14.3981 29.9879 14.0823 29.985 13.7546C29.9822 13.4268 29.8507 13.1133 29.619 12.8816C29.3872 12.6498 29.0737 12.5183 28.746 12.5155C28.4182 12.5126 28.1025 12.6386 27.8667 12.8663L24.8755 15.8551L19.6155 13.7501L28.7505 10.0963L37.8855 13.7501L28.7505 17.4038Z" fill="#151A6A"/>
<path d="M52.1255 24.9163C47.4282 24.9163 42.8364 26.3092 38.9307 28.9189C35.025 31.5285 31.9809 35.2378 30.1834 39.5775C28.3858 43.9173 27.9154 48.6926 28.8318 53.2997C29.7482 57.9067 32.0102 62.1385 35.3317 65.46C38.6532 68.7815 42.8851 71.0435 47.4921 71.9599C52.0992 72.8763 56.8745 72.406 61.2142 70.6084C65.554 68.8108 69.2632 65.7667 71.8729 61.8611C74.4826 57.9554 75.8755 53.3636 75.8755 48.6663C75.8682 42.3696 73.3637 36.3329 68.9112 31.8805C64.4588 27.4281 58.4222 24.9235 52.1255 24.9163ZM52.1255 67.4163C48.4171 67.4163 44.792 66.3166 41.7086 64.2563C38.6251 62.196 36.2219 59.2677 34.8028 55.8416C33.3836 52.4155 33.0123 48.6455 33.7358 45.0083C34.4592 41.3712 36.245 38.0302 38.8672 35.408C41.4895 32.7858 44.8304 31 48.4676 30.2765C52.1047 29.5531 55.8747 29.9244 59.3008 31.3435C62.7269 32.7627 65.6553 35.1659 67.7156 38.2493C69.7758 41.3327 70.8755 44.9579 70.8755 48.6663C70.8699 53.6373 68.8926 58.4032 65.3775 61.9183C61.8624 65.4334 57.0966 67.4106 52.1255 67.4163Z" fill="#C4A2FC"/>
<path d="M52.1255 32.4163C48.9115 32.4163 45.7698 33.3693 43.0975 35.1549C40.4252 36.9404 38.3424 39.4783 37.1125 42.4476C35.8825 45.4169 35.5607 48.6843 36.1877 51.8365C36.8147 54.9887 38.3624 57.8841 40.635 60.1567C42.9076 62.4293 45.8031 63.977 48.9553 64.604C52.1075 65.231 55.3748 64.9092 58.3441 63.6793C61.3134 62.4494 63.8513 60.3666 65.6369 57.6943C67.4224 55.022 68.3755 51.8802 68.3755 48.6663C68.3709 44.3579 66.6573 40.2273 63.6109 37.1809C60.5644 34.1344 56.4338 32.4209 52.1255 32.4163ZM61.8517 44.4475L52.8042 55.75C52.5728 56.04 52.2797 56.2748 51.9462 56.4374C51.6127 56.6 51.2472 56.6863 50.8762 56.6902C50.5053 56.694 50.1381 56.6152 49.8013 56.4595C49.4645 56.3038 49.1666 56.0751 48.9292 55.79L43.6592 49.465C43.4564 49.2094 43.3616 48.8846 43.395 48.5599C43.4285 48.2353 43.5875 47.9367 43.8382 47.7278C44.0889 47.5189 44.4114 47.4163 44.7367 47.4419C45.062 47.4676 45.3644 47.6194 45.5792 47.865L50.8492 54.1888L59.893 42.885C60.1008 42.6284 60.4017 42.4645 60.7299 42.429C61.0582 42.3934 61.3872 42.4892 61.645 42.6954C61.9029 42.9016 62.0687 43.2015 62.1063 43.5295C62.1438 43.8575 62.0501 44.1871 61.8455 44.4463L61.8517 44.4475Z" fill="#C4A2FC"/>
<path d="M28.0003 72.4164H32.3128L33.0203 76.6664C33.0936 77.1056 33.2828 77.5172 33.5684 77.8588C33.8539 78.2004 34.2256 78.4595 34.6448 78.6094C35.0641 78.7592 35.5158 78.7944 35.9532 78.7112C36.3906 78.6281 36.7978 78.4297 37.1328 78.1364L42.7966 73.1802C37.2443 71.0526 32.5746 67.1099 29.5466 61.9927L25.8153 68.7089C25.6055 69.0893 25.4985 69.5177 25.5046 69.952C25.5108 70.3863 25.6301 70.8115 25.8506 71.1858C26.0711 71.56 26.3854 71.8703 26.7623 72.0861C27.1393 72.3019 27.566 72.4157 28.0003 72.4164Z" fill="#C4A2FC"/>
<path d="M61.4463 73.1736L67.11 78.1248C67.4451 78.4181 67.8523 78.6165 68.2897 78.6997C68.7271 78.7828 69.1788 78.7476 69.5981 78.5978C70.0173 78.4479 70.3889 78.1888 70.6745 77.8472C70.9601 77.5057 71.1493 77.094 71.2225 76.6548L71.93 72.4048H76.25C76.6856 72.4051 77.1136 72.2915 77.4918 72.0754C77.8699 71.8593 78.1851 71.5482 78.406 71.1728C78.6269 70.7974 78.7459 70.3709 78.7512 69.9354C78.7565 69.4998 78.648 69.0705 78.4363 68.6898L74.705 61.9749C71.6763 67.0974 67.0033 71.0444 61.4463 73.1736Z" fill="#C4A2FC"/>
<path d="M48.75 5C48.75 4.00544 48.3549 3.05161 47.6516 2.34835C46.9484 1.64509 45.9946 1.25 45 1.25H12.5C11.5054 1.25 10.5516 1.64509 9.84835 2.34835C9.14509 3.05161 8.75 4.00544 8.75 5V46.25H5C4.00544 46.25 3.05161 46.6451 2.34835 47.3484C1.64509 48.0516 1.25 49.0054 1.25 50V55C1.25265 57.3198 2.17537 59.5439 3.81574 61.1843C5.45611 62.8246 7.68017 63.7474 10 63.75H40C42.3198 63.7474 44.5439 62.8246 46.1843 61.1843C47.8246 59.5439 48.7474 57.3198 48.75 55V5ZM10 61.25C8.34301 61.248 6.75445 60.5889 5.58278 59.4172C4.4111 58.2456 3.75198 56.657 3.75 55V50C3.75 49.6685 3.8817 49.3505 4.11612 49.1161C4.35054 48.8817 4.66848 48.75 5 48.75H30C30.3315 48.75 30.6495 48.8817 30.8839 49.1161C31.1183 49.3505 31.25 49.6685 31.25 50V55C31.2492 56.1647 31.4817 57.3177 31.9336 58.3911C32.3855 59.4645 33.0477 60.4366 33.8812 61.25H10ZM46.25 55C46.2516 56.5499 45.6772 58.0452 44.6383 59.1954C43.5994 60.3457 42.1702 61.0689 40.6281 61.2246C39.086 61.3804 37.5411 60.9576 36.2932 60.0384C35.0452 59.1191 34.1834 57.7689 33.875 56.25H40C40.3315 56.25 40.6495 56.1183 40.8839 55.8839C41.1183 55.6495 41.25 55.3315 41.25 55C41.25 54.6685 41.1183 54.3505 40.8839 54.1161C40.6495 53.8817 40.3315 53.75 40 53.75H33.75V50C33.7459 49.5732 33.668 49.1503 33.52 48.75H40C40.3315 48.75 40.6495 48.6183 40.8839 48.3839C41.1183 48.1495 41.25 47.8315 41.25 47.5C41.25 47.1685 41.1183 46.8505 40.8839 46.6161C40.6495 46.3817 40.3315 46.25 40 46.25H11.25V5C11.25 4.66848 11.3817 4.35054 11.6161 4.11612C11.8505 3.8817 12.1685 3.75 12.5 3.75H45C45.3315 3.75 45.6495 3.8817 45.8839 4.11612C46.1183 4.35054 46.25 4.66848 46.25 5V55Z" fill="#151A6A"/>
<path d="M60 8.75H57.5C56.5054 8.75 55.5516 9.14509 54.8484 9.84835C54.1451 10.5516 53.75 11.5054 53.75 12.5V43.75C53.7501 44.0815 53.8818 44.3994 54.1162 44.6338L57.8662 48.3838C58.1007 48.6181 58.4185 48.7497 58.75 48.7497C59.0815 48.7497 59.3993 48.6181 59.6338 48.3838L63.3838 44.6338C63.6182 44.3994 63.7499 44.0815 63.75 43.75V12.5C63.75 11.5054 63.3549 10.5516 62.6516 9.84835C61.9484 9.14509 60.9946 8.75 60 8.75ZM57.5 11.25H60C60.3315 11.25 60.6495 11.3817 60.8839 11.6161C61.1183 11.8505 61.25 12.1685 61.25 12.5V16.25H56.25V12.5C56.25 12.1685 56.3817 11.8505 56.6161 11.6161C56.8505 11.3817 57.1685 11.25 57.5 11.25ZM58.75 45.7325L56.25 43.2325V18.75H61.25V43.2325L58.75 45.7325Z" fill="#151A6A"/>
<path d="M40 31.25H17.5C17.1685 31.25 16.8505 31.3817 16.6161 31.6161C16.3817 31.8505 16.25 32.1685 16.25 32.5C16.25 32.8315 16.3817 33.1495 16.6161 33.3839C16.8505 33.6183 17.1685 33.75 17.5 33.75H40C40.3315 33.75 40.6495 33.6183 40.8839 33.3839C41.1183 33.1495 41.25 32.8315 41.25 32.5C41.25 32.1685 41.1183 31.8505 40.8839 31.6161C40.6495 31.3817 40.3315 31.25 40 31.25Z" fill="#151A6A"/>
<path d="M40 38.75H17.5C17.1685 38.75 16.8505 38.8817 16.6161 39.1161C16.3817 39.3505 16.25 39.6685 16.25 40C16.25 40.3315 16.3817 40.6495 16.6161 40.8839C16.8505 41.1183 17.1685 41.25 17.5 41.25H40C40.3315 41.25 40.6495 41.1183 40.8839 40.8839C41.1183 40.6495 41.25 40.3315 41.25 40C41.25 39.6685 41.1183 39.3505 40.8839 39.1161C40.6495 38.8817 40.3315 38.75 40 38.75Z" fill="#151A6A"/>
</svg>
