<svg width="80" height="80" viewBox="0 0 80 80" fill="none" xmlns="http://www.w3.org/2000/svg">
<path d="M75.0002 27.5H35.0002C34.461 27.5019 33.9285 27.6207 33.4397 27.8484C32.9509 28.0761 32.5173 28.4072 32.1689 28.8188C33.572 28.9654 34.8829 29.5873 35.8839 30.5813L41.5539 36.25H67.9502C69.3936 36.2542 70.7914 36.7565 71.9074 37.672C73.0233 38.5875 73.789 39.8602 74.0752 41.275L78.7502 64.625V31.25C78.7502 30.2554 78.3551 29.3016 77.6518 28.5983C76.9486 27.8951 75.9948 27.5 75.0002 27.5Z" fill="#C4A2FC"/>
<path d="M67.9497 38.75H40.5172L34.116 32.3488C33.7684 31.9994 33.355 31.7225 32.8997 31.5339C32.4444 31.3453 31.9563 31.2488 31.4635 31.25H20.451C19.9062 31.2497 19.3679 31.3681 18.8735 31.5969C18.3791 31.8258 17.9405 32.1596 17.5882 32.5752C17.2359 32.9907 16.9784 33.4781 16.8336 34.0033C16.6888 34.5284 16.6602 35.0789 16.7497 35.6163L23.7647 77.705C23.8133 77.9973 23.9642 78.2628 24.1904 78.4542C24.4166 78.6456 24.7034 78.7505 24.9997 78.75H77.4997C77.6851 78.75 77.8682 78.7089 78.0357 78.6294C78.2031 78.55 78.3509 78.4343 78.4681 78.2907C78.5854 78.1471 78.6692 77.9792 78.7136 77.7992C78.758 77.6193 78.7618 77.4316 78.7247 77.25L71.6247 41.7638C71.4531 40.915 70.9936 40.1515 70.324 39.6023C69.6544 39.0532 68.8157 38.7521 67.9497 38.75ZM53.7497 62.5C53.7497 62.1685 53.8814 61.8505 54.1158 61.6161C54.3502 61.3817 54.6682 61.25 54.9997 61.25H66.2497C66.5812 61.25 66.8992 61.3817 67.1336 61.6161C67.368 61.8505 67.4997 62.1685 67.4997 62.5C67.4997 62.8315 67.368 63.1495 67.1336 63.3839C66.8992 63.6183 66.5812 63.75 66.2497 63.75H54.9997C54.6682 63.75 54.3502 63.6183 54.1158 63.3839C53.8814 63.1495 53.7497 62.8315 53.7497 62.5ZM68.7497 71.25H57.4997C57.1682 71.25 56.8502 71.1183 56.6158 70.8839C56.3814 70.6495 56.2497 70.3315 56.2497 70C56.2497 69.6685 56.3814 69.3505 56.6158 69.1161C56.8502 68.8817 57.1682 68.75 57.4997 68.75H68.7497C69.0812 68.75 69.3992 68.8817 69.6336 69.1161C69.868 69.3505 69.9997 69.6685 69.9997 70C69.9997 70.3315 69.868 70.6495 69.6336 70.8839C69.3992 71.1183 69.0812 71.25 68.7497 71.25Z" fill="#C4A2FC"/>
<path d="M60 8.75005H45C45 7.75549 44.6049 6.80166 43.9016 6.0984C43.1984 5.39514 42.2446 5.00005 41.25 5.00005H37.3425C37.0663 3.92564 36.4405 2.97361 35.5639 2.29383C34.6872 1.61405 33.6094 1.24512 32.5 1.24512C31.3906 1.24512 30.3128 1.61405 29.4361 2.29383C28.5595 2.97361 27.9337 3.92564 27.6575 5.00005H23.75C22.7554 5.00005 21.8016 5.39514 21.0983 6.0984C20.3951 6.80166 20 7.75549 20 8.75005H5C4.00544 8.75005 3.05161 9.14514 2.34835 9.8484C1.64509 10.5517 1.25 11.5055 1.25 12.5V52.5C1.25 53.4946 1.64509 54.4484 2.34835 55.1517C3.05161 55.855 4.00544 56.25 5 56.25H60C60.9946 56.25 61.9484 55.855 62.6516 55.1517C63.3549 54.4484 63.75 53.4946 63.75 52.5V12.5C63.75 11.5055 63.3549 10.5517 62.6516 9.8484C61.9484 9.14514 60.9946 8.75005 60 8.75005ZM22.5 8.75005C22.5 8.41853 22.6317 8.10059 22.8661 7.86617C23.1005 7.63175 23.4185 7.50005 23.75 7.50005H28.75C29.0815 7.50005 29.3995 7.36835 29.6339 7.13393C29.8683 6.89951 30 6.58157 30 6.25005C30 5.58701 30.2634 4.95112 30.7322 4.48228C31.2011 4.01344 31.837 3.75005 32.5 3.75005C33.163 3.75005 33.7989 4.01344 34.2678 4.48228C34.7366 4.95112 35 5.58701 35 6.25005C35 6.58157 35.1317 6.89951 35.3661 7.13393C35.6005 7.36835 35.9185 7.50005 36.25 7.50005H41.25C41.5815 7.50005 41.8995 7.63175 42.1339 7.86617C42.3683 8.10059 42.5 8.41853 42.5 8.75005V11.25C42.5 11.5816 42.3683 11.8995 42.1339 12.1339C41.8995 12.3684 41.5815 12.5 41.25 12.5H23.75C23.4185 12.5 23.1005 12.3684 22.8661 12.1339C22.6317 11.8995 22.5 11.5816 22.5 11.25V8.75005ZM61.25 52.5C61.25 52.8316 61.1183 53.1495 60.8839 53.3839C60.6495 53.6184 60.3315 53.75 60 53.75H5C4.66848 53.75 4.35054 53.6184 4.11612 53.3839C3.8817 53.1495 3.75 52.8316 3.75 52.5V12.5C3.75 12.1685 3.8817 11.8506 4.11612 11.6162C4.35054 11.3817 4.66848 11.25 5 11.25H20C20 12.2446 20.3951 13.1984 21.0983 13.9017C21.8016 14.605 22.7554 15 23.75 15H41.25C42.2446 15 43.1984 14.605 43.9016 13.9017C44.6049 13.1984 45 12.2446 45 11.25H60C60.3315 11.25 60.6495 11.3817 60.8839 11.6162C61.1183 11.8506 61.25 12.1685 61.25 12.5V52.5Z" fill="#151A6A"/>
<path d="M21.4888 32.2712C22.4767 31.4522 23.1886 30.349 23.5278 29.1114C23.8669 27.8738 23.8169 26.5618 23.3846 25.3536C22.9522 24.1454 22.1584 23.0996 21.111 22.3582C20.0636 21.6168 18.8134 21.2157 17.5302 21.2095C16.247 21.2033 14.993 21.5923 13.9385 22.3235C12.884 23.0548 12.0801 24.0929 11.6361 25.2969C11.1921 26.5008 11.1294 27.8123 11.4566 29.0531C11.7838 30.2939 12.485 31.404 13.465 32.2324C12.0421 32.9699 10.8495 34.0847 10.0178 35.4547C9.18619 36.8248 8.74758 38.3972 8.75001 39.9999V44.9999C8.75001 45.9945 9.1451 46.9483 9.84836 47.6516C10.5516 48.3549 11.5054 48.7499 12.5 48.7499H22.5C23.4946 48.7499 24.4484 48.3549 25.1517 47.6516C25.8549 46.9483 26.25 45.9945 26.25 44.9999V40.3149C26.2512 38.6703 25.8098 37.0556 24.9721 35.6404C24.1343 34.2251 22.9312 33.0613 21.4888 32.2712ZM17.5 23.7499C18.2417 23.7499 18.9667 23.9699 19.5834 24.3819C20.2001 24.794 20.6807 25.3796 20.9646 26.0649C21.2484 26.7501 21.3226 27.5041 21.1779 28.2315C21.0333 28.959 20.6761 29.6271 20.1517 30.1516C19.6272 30.676 18.959 31.0332 18.2316 31.1779C17.5042 31.3226 16.7502 31.2483 16.0649 30.9645C15.3797 30.6807 14.7941 30.2 14.382 29.5833C13.9699 28.9666 13.75 28.2416 13.75 27.4999C13.75 26.5054 14.1451 25.5515 14.8484 24.8483C15.5516 24.145 16.5054 23.7499 17.5 23.7499ZM23.75 44.9999C23.75 45.3315 23.6183 45.6494 23.3839 45.8838C23.1495 46.1182 22.8315 46.2499 22.5 46.2499H12.5C12.1685 46.2499 11.8505 46.1182 11.6161 45.8838C11.3817 45.6494 11.25 45.3315 11.25 44.9999V39.9999C11.25 38.3423 11.9085 36.7526 13.0806 35.5805C14.2527 34.4084 15.8424 33.7499 17.5 33.7499C19.1958 33.8023 20.8028 34.5207 21.9726 35.7495C23.1425 36.9783 23.7811 38.6186 23.75 40.3149V44.9999Z" fill="#151A6A"/>
<path d="M52.5 20H35C34.0054 20 33.0516 20.3951 32.3484 21.0983C31.6451 21.8016 31.25 22.7554 31.25 23.75V38.6625C31.2492 39.2807 31.4013 39.8895 31.6926 40.4347C31.984 40.9799 32.4056 41.4446 32.92 41.7875L41.67 47.6213C42.286 48.0319 43.0097 48.251 43.75 48.251C44.4903 48.251 45.214 48.0319 45.83 47.6213L54.58 41.7875C55.0944 41.4446 55.516 40.9799 55.8074 40.4347C56.0987 39.8895 56.2508 39.2807 56.25 38.6625V23.75C56.25 22.7554 55.8549 21.8016 55.1517 21.0983C54.4484 20.3951 53.4946 20 52.5 20ZM53.75 38.6625C53.75 38.8682 53.6993 39.0708 53.6022 39.2522C53.5052 39.4336 53.3649 39.5883 53.1938 39.7025L44.4438 45.5363C44.2383 45.6733 43.9969 45.7464 43.75 45.7464C43.5031 45.7464 43.2617 45.6733 43.0563 45.5363L34.3063 39.7025C34.1351 39.5883 33.9948 39.4336 33.8978 39.2522C33.8007 39.0708 33.75 38.8682 33.75 38.6625V23.75C33.75 23.4185 33.8817 23.1005 34.1161 22.8661C34.3505 22.6317 34.6685 22.5 35 22.5H52.5C52.8315 22.5 53.1495 22.6317 53.3839 22.8661C53.6183 23.1005 53.75 23.4185 53.75 23.75V38.6625Z" fill="#151A6A"/>
<path d="M47.5 27.5H40C39.6685 27.5 39.3505 27.6317 39.1161 27.8661C38.8817 28.1005 38.75 28.4185 38.75 28.75C38.75 29.0815 38.8817 29.3995 39.1161 29.6339C39.3505 29.8683 39.6685 30 40 30H47.5C47.8315 30 48.1495 29.8683 48.3839 29.6339C48.6183 29.3995 48.75 29.0815 48.75 28.75C48.75 28.4185 48.6183 28.1005 48.3839 27.8661C48.1495 27.6317 47.8315 27.5 47.5 27.5Z" fill="#151A6A"/>
<path d="M47.5 33.75H40C39.6685 33.75 39.3505 33.8817 39.1161 34.1161C38.8817 34.3505 38.75 34.6685 38.75 35C38.75 35.3315 38.8817 35.6495 39.1161 35.8839C39.3505 36.1183 39.6685 36.25 40 36.25H47.5C47.8315 36.25 48.1495 36.1183 48.3839 35.8839C48.6183 35.6495 48.75 35.3315 48.75 35C48.75 34.6685 48.6183 34.3505 48.3839 34.1161C48.1495 33.8817 47.8315 33.75 47.5 33.75Z" fill="#151A6A"/>
</svg>
