<svg width="80" height="80" viewBox="0 0 80 80" fill="none" xmlns="http://www.w3.org/2000/svg">
<path d="M75 35H27.5C26.5054 35 25.5516 35.3951 24.8483 36.0983C24.1451 36.8016 23.75 37.7554 23.75 38.75V71.25C23.75 72.2446 24.1451 73.1984 24.8483 73.9016C25.5516 74.6049 26.5054 75 27.5 75H75C75.9946 75 76.9484 74.6049 77.6516 73.9016C78.3549 73.1984 78.75 72.2446 78.75 71.25V38.75C78.75 37.7554 78.3549 36.8016 77.6516 36.0983C76.9484 35.3951 75.9946 35 75 35ZM57.5187 57.25L46.25 63.75C45.87 63.9694 45.4389 64.0849 45 64.0849C44.5612 64.0849 44.1301 63.9694 43.75 63.75C43.37 63.5306 43.0544 63.215 42.835 62.835C42.6155 62.4549 42.5 62.0238 42.5 61.585V48.4387C42.4998 47.9977 42.6163 47.5645 42.8376 47.183C43.0589 46.8016 43.3772 46.4854 43.7602 46.2667C44.1432 46.048 44.5772 45.9345 45.0182 45.9377C45.4592 45.9409 45.8915 46.0607 46.2712 46.285L57.54 52.9338C57.9157 53.1559 58.2267 53.4726 58.4421 53.8523C58.6574 54.232 58.7696 54.6615 58.7675 55.098C58.7653 55.5345 58.6489 55.9628 58.4298 56.3404C58.2108 56.7179 57.8966 57.0315 57.5187 57.25Z" fill="#C4A2FC"/>
<path d="M60 5H5C4.00544 5 3.05161 5.39509 2.34835 6.09835C1.64509 6.80161 1.25 7.75544 1.25 8.75V56.25C1.25 57.2446 1.64509 58.1984 2.34835 58.9016C3.05161 59.6049 4.00544 60 5 60H60C60.9946 60 61.9484 59.6049 62.6516 58.9016C63.3549 58.1984 63.75 57.2446 63.75 56.25V8.75C63.75 7.75544 63.3549 6.80161 62.6516 6.09835C61.9484 5.39509 60.9946 5 60 5ZM5 7.5H60C60.3315 7.5 60.6495 7.6317 60.8839 7.86612C61.1183 8.10054 61.25 8.41848 61.25 8.75V12.5H3.75V8.75C3.75 8.41848 3.8817 8.10054 4.11612 7.86612C4.35054 7.6317 4.66848 7.5 5 7.5ZM14.625 38.125C14.625 37.2597 14.8816 36.4138 15.3623 35.6944C15.8431 34.9749 16.5263 34.4142 17.3258 34.083C18.1252 33.7519 19.0049 33.6653 19.8535 33.8341C20.7022 34.0029 21.4817 34.4196 22.0936 35.0314C22.7054 35.6433 23.1221 36.4228 23.2909 37.2715C23.4597 38.1201 23.3731 38.9998 23.042 39.7992C22.7108 40.5987 22.1501 41.2819 21.4306 41.7627C20.7112 42.2434 19.8653 42.5 19 42.5C17.8397 42.5 16.7269 42.0391 15.9064 41.2186C15.0859 40.3981 14.625 39.2853 14.625 38.125ZM26.75 57.5H11.25V52.75C11.25 50.6946 12.0665 48.7233 13.5199 47.2699C14.9733 45.8165 16.9446 45 19 45C21.0554 45 23.0267 45.8165 24.4801 47.2699C25.9335 48.7233 26.75 50.6946 26.75 52.75V57.5ZM60 57.5H29.25V52.75C29.2475 50.7987 28.688 48.8886 27.6373 47.2443C26.5866 45.5999 25.0884 44.2897 23.3188 43.4675C24.4253 42.5743 25.2277 41.36 25.6153 39.9918C26.0029 38.6236 25.9567 37.1688 25.4831 35.828C25.0095 34.4871 24.1317 33.3261 22.9707 32.5049C21.8097 31.6838 20.4227 31.2428 19.0006 31.2428C17.5786 31.2428 16.1915 31.6838 15.0305 32.5049C13.8696 33.3261 12.9918 34.4871 12.5182 35.828C12.0445 37.1688 11.9983 38.6236 12.386 39.9918C12.7736 41.36 13.5759 42.5743 14.6825 43.4675C12.9126 44.2895 11.4141 45.5997 10.3632 47.244C9.3123 48.8884 8.75263 50.7985 8.75 52.75V57.5H5C4.66848 57.5 4.35054 57.3683 4.11612 57.1339C3.8817 56.8995 3.75 56.5815 3.75 56.25V15H61.25V56.25C61.25 56.5815 61.1183 56.8995 60.8839 57.1339C60.6495 57.3683 60.3315 57.5 60 57.5ZM55 31.25C55 31.5815 54.8683 31.8995 54.6339 32.1339C54.3995 32.3683 54.0815 32.5 53.75 32.5H35C34.6685 32.5 34.3505 32.3683 34.1161 32.1339C33.8817 31.8995 33.75 31.5815 33.75 31.25C33.75 30.9185 33.8817 30.6005 34.1161 30.3661C34.3505 30.1317 34.6685 30 35 30H53.75C54.0815 30 54.3995 30.1317 54.6339 30.3661C54.8683 30.6005 55 30.9185 55 31.25ZM55 25C55 25.3315 54.8683 25.6495 54.6339 25.8839C54.3995 26.1183 54.0815 26.25 53.75 26.25H35C34.6685 26.25 34.3505 26.1183 34.1161 25.8839C33.8817 25.6495 33.75 25.3315 33.75 25C33.75 24.6685 33.8817 24.3505 34.1161 24.1161C34.3505 23.8817 34.6685 23.75 35 23.75H53.75C54.0815 23.75 54.3995 23.8817 54.6339 24.1161C54.8683 24.3505 55 24.6685 55 25ZM55 37.5C55 37.8315 54.8683 38.1495 54.6339 38.3839C54.3995 38.6183 54.0815 38.75 53.75 38.75H35C34.6685 38.75 34.3505 38.6183 34.1161 38.3839C33.8817 38.1495 33.75 37.8315 33.75 37.5C33.75 37.1685 33.8817 36.8505 34.1161 36.6161C34.3505 36.3817 34.6685 36.25 35 36.25H53.75C54.0815 36.25 54.3995 36.3817 54.6339 36.6161C54.8683 36.8505 55 37.1685 55 37.5ZM42.5 43.75C42.5 44.0815 42.3683 44.3995 42.1339 44.6339C41.8995 44.8683 41.5815 45 41.25 45H35C34.6685 45 34.3505 44.8683 34.1161 44.6339C33.8817 44.3995 33.75 44.0815 33.75 43.75C33.75 43.4185 33.8817 43.1005 34.1161 42.8661C34.3505 42.6317 34.6685 42.5 35 42.5H41.25C41.5815 42.5 41.8995 42.6317 42.1339 42.8661C42.3683 43.1005 42.5 43.4185 42.5 43.75ZM55 43.75C55 44.0815 54.8683 44.3995 54.6339 44.6339C54.3995 44.8683 54.0815 45 53.75 45H47.5C47.1685 45 46.8505 44.8683 46.6161 44.6339C46.3817 44.3995 46.25 44.0815 46.25 43.75C46.25 43.4185 46.3817 43.1005 46.6161 42.8661C46.8505 42.6317 47.1685 42.5 47.5 42.5H53.75C54.0815 42.5 54.3995 42.6317 54.6339 42.8661C54.8683 43.1005 55 43.4185 55 43.75Z" fill="#151A6A"/>
</svg>
