<svg width="80" height="80" viewBox="0 0 80 80" fill="none" xmlns="http://www.w3.org/2000/svg">
<path d="M58.125 60C56.7989 60 55.5271 60.5268 54.5895 61.4645C53.6518 62.4021 53.125 63.6739 53.125 65V71.25H63.125V65C63.125 63.6739 62.5982 62.4021 61.6605 61.4645C60.7229 60.5268 59.4511 60 58.125 60Z" fill="#C4A2FC"/>
<path d="M44.375 58.75C42.718 58.752 41.1294 59.4111 39.9578 60.5828C38.7861 61.7544 38.127 63.343 38.125 65V71.25H50.625V65C50.623 63.343 49.9639 61.7544 48.7922 60.5828C47.6206 59.4111 46.032 58.752 44.375 58.75Z" fill="#C4A2FC"/>
<path d="M58.125 57.5C59.5057 57.5 60.625 56.3807 60.625 55C60.625 53.6193 59.5057 52.5 58.125 52.5C56.7443 52.5 55.625 53.6193 55.625 55C55.625 56.3807 56.7443 57.5 58.125 57.5Z" fill="#C4A2FC"/>
<path d="M44.375 56.25C46.4461 56.25 48.125 54.5711 48.125 52.5C48.125 50.4289 46.4461 48.75 44.375 48.75C42.3039 48.75 40.625 50.4289 40.625 52.5C40.625 54.5711 42.3039 56.25 44.375 56.25Z" fill="#C4A2FC"/>
<path d="M74.375 31.25H26.875C25.8804 31.25 24.9266 31.6451 24.2233 32.3483C23.5201 33.0516 23.125 34.0054 23.125 35V75C23.125 75.9946 23.5201 76.9484 24.2233 77.6516C24.9266 78.3549 25.8804 78.75 26.875 78.75H74.375C75.3696 78.75 76.3234 78.3549 77.0266 77.6516C77.7299 76.9484 78.125 75.9946 78.125 75V35C78.125 34.0054 77.7299 33.0516 77.0266 32.3483C76.3234 31.6451 75.3696 31.25 74.375 31.25ZM73.125 72.5C73.125 72.8315 72.9933 73.1495 72.7589 73.3839C72.5245 73.6183 72.2065 73.75 71.875 73.75H29.375C29.0435 73.75 28.7255 73.6183 28.4911 73.3839C28.2567 73.1495 28.125 72.8315 28.125 72.5V37.5C28.125 37.1685 28.2567 36.8505 28.4911 36.6161C28.7255 36.3817 29.0435 36.25 29.375 36.25H71.875C72.2065 36.25 72.5245 36.3817 72.7589 36.6161C72.9933 36.8505 73.125 37.1685 73.125 37.5V72.5Z" fill="#C4A2FC"/>
<path d="M30.625 71.25H35.625V65C35.6266 63.3981 36.0679 61.8273 36.9009 60.4589C37.7338 59.0906 38.9265 57.9771 40.3487 57.24C39.3685 56.4144 38.6657 55.3073 38.3357 54.0689C38.0057 52.8305 38.0644 51.5205 38.5039 50.3166C38.9434 49.1127 39.7423 48.0729 40.7925 47.3383C41.8427 46.6037 43.0934 46.2096 44.375 46.2096C45.6566 46.2096 46.9073 46.6037 47.9575 47.3383C49.0077 48.0729 49.8066 49.1127 50.2461 50.3166C50.6856 51.5205 50.7443 52.8305 50.4143 54.0689C50.0843 55.3073 49.3815 56.4144 48.4013 57.24C49.9054 58.0244 51.1508 59.2268 51.9875 60.7025C52.6452 59.765 53.5073 58.9892 54.5087 58.4338C53.8326 57.7256 53.3793 56.8346 53.2049 55.8712C53.0306 54.9077 53.1429 53.9143 53.528 53.0142C53.9131 52.114 54.554 51.3467 55.3712 50.8075C56.1884 50.2683 57.1459 49.9808 58.125 49.9808C59.1041 49.9808 60.0616 50.2683 60.8788 50.8075C61.696 51.3467 62.3369 52.114 62.722 53.0142C63.1071 53.9143 63.2194 54.9077 63.0451 55.8712C62.8707 56.8346 62.4174 57.7256 61.7413 58.4338C62.9168 59.0807 63.8973 60.0313 64.5804 61.1862C65.2635 62.3411 65.6242 63.6582 65.625 65V71.25H70.625V38.75H30.625V71.25Z" fill="#C4A2FC"/>
<path d="M41.3413 29.9725L30.4875 23.46C31.3932 22.056 31.8749 20.4207 31.875 18.75V18.2725L38.6838 14.875C38.8758 14.7802 39.0403 14.6376 39.1614 14.461C39.2826 14.2843 39.3563 14.0795 39.3755 13.8661C39.3947 13.6528 39.3587 13.4381 39.2711 13.2427C39.1835 13.0472 39.0471 12.8776 38.875 12.75L23.875 1.5C23.6586 1.33772 23.3955 1.25 23.125 1.25C22.8545 1.25 22.5914 1.33772 22.375 1.5L7.375 12.75C7.20294 12.8776 7.06655 13.0472 6.97891 13.2427C6.89127 13.4381 6.85533 13.6528 6.87453 13.8661C6.89373 14.0795 6.96743 14.2843 7.08856 14.461C7.20968 14.6376 7.37418 14.7802 7.56625 14.875L14.375 18.2725V18.75C14.3751 20.4207 14.8568 22.056 15.7625 23.46L4.90875 29.9725C3.98547 30.53 3.22134 31.3159 2.68998 32.2545C2.15862 33.1931 1.87795 34.2527 1.875 35.3312V62.5C1.875 62.8315 2.0067 63.1495 2.24112 63.3839C2.47554 63.6183 2.79348 63.75 3.125 63.75H43.125C43.4565 63.75 43.7745 63.6183 44.0089 63.3839C44.2433 63.1495 44.375 62.8315 44.375 62.5V35.3312C44.3721 34.2527 44.0914 33.1931 43.56 32.2545C43.0287 31.3159 42.2645 30.53 41.3413 29.9725ZM23.125 45C23.9903 45 24.8362 45.2566 25.5556 45.7373C26.2751 46.2181 26.8358 46.9013 27.167 47.7008C27.4981 48.5002 27.5847 49.3799 27.4159 50.2285C27.2471 51.0772 26.8304 51.8567 26.2186 52.4686C25.6067 53.0804 24.8272 53.4971 23.9785 53.6659C23.1299 53.8347 22.2502 53.7481 21.4508 53.417C20.6513 53.0858 19.9681 52.5251 19.4873 51.8056C19.0066 51.0862 18.75 50.2403 18.75 49.375C18.75 48.2147 19.2109 47.1019 20.0314 46.2814C20.8519 45.4609 21.9647 45 23.125 45ZM15.8187 26.3412L17.4275 25.3763C19.0096 26.7462 21.0322 27.5002 23.125 27.5002C25.2178 27.5002 27.2404 26.7462 28.8225 25.3763L30.4312 26.3412L23.125 40.955L15.8187 26.3412ZM29.375 17.5H16.875V14.5438C18.8461 13.6824 20.9739 13.2378 23.125 13.2378C25.2761 13.2378 27.4039 13.6824 29.375 14.5438V17.5ZM29.25 20C28.9631 21.4129 28.1966 22.6831 27.0803 23.5955C25.9641 24.5079 24.5667 25.0063 23.125 25.0063C21.6833 25.0063 20.2859 24.5079 19.1697 23.5955C18.0534 22.6831 17.2869 21.4129 17 20H29.25ZM10.5 13.5363L23.125 4.0625L35.7562 13.5363L31.875 15.4775V13.75C31.8749 13.5179 31.8101 13.2905 31.6881 13.0931C31.566 12.8957 31.3914 12.7362 31.1838 12.6325C28.6796 11.3882 25.9213 10.7407 23.125 10.7407C20.3287 10.7407 17.5704 11.3882 15.0663 12.6325C14.8586 12.7362 14.684 12.8957 14.5619 13.0931C14.4399 13.2905 14.3751 13.5179 14.375 13.75V15.4775L10.5 13.5363ZM41.875 61.25H36.875V43.75C36.875 43.4185 36.7433 43.1005 36.5089 42.8661C36.2745 42.6317 35.9565 42.5 35.625 42.5C35.2935 42.5 34.9755 42.6317 34.7411 42.8661C34.5067 43.1005 34.375 43.4185 34.375 43.75V61.25H11.875V43.75C11.875 43.4185 11.7433 43.1005 11.5089 42.8661C11.2745 42.6317 10.9565 42.5 10.625 42.5C10.2935 42.5 9.97554 42.6317 9.74112 42.8661C9.5067 43.1005 9.375 43.4185 9.375 43.75V61.25H4.375V35.3312C4.37675 34.684 4.54525 34.0482 4.86426 33.4851C5.18327 32.9219 5.64202 32.4505 6.19625 32.1163L13.6688 27.6325L21.2375 42.77C19.6429 43.2253 18.2667 44.2415 17.3623 45.6315C16.458 47.0215 16.0865 48.6915 16.3164 50.3338C16.5462 51.976 17.3619 53.4799 18.6131 54.5682C19.8643 55.6565 21.4667 56.2558 23.125 56.2558C24.7833 56.2558 26.3857 55.6565 27.6369 54.5682C28.8881 53.4799 29.7038 51.976 29.9336 50.3338C30.1635 48.6915 29.792 47.0215 28.8877 45.6315C27.9833 44.2415 26.6071 43.2253 25.0125 42.77L32.5813 27.6325L40.0537 32.1163C40.608 32.4505 41.0667 32.9219 41.3857 33.4851C41.7048 34.0482 41.8733 34.684 41.875 35.3312V61.25Z" fill="#151A6A"/>
</svg>
