<svg width="80" height="80" viewBox="0 0 80 80" fill="none" xmlns="http://www.w3.org/2000/svg">
<path d="M55.0002 52.5C56.4214 52.5 58.4389 49.125 58.7152 43.75H51.2852C51.5614 49.125 53.5789 52.5 55.0002 52.5Z" fill="#C4A2FC"/>
<path d="M55.0002 32.5C53.5789 32.5 51.5614 35.875 51.2852 41.25H58.7152C58.4389 35.875 56.4214 32.5 55.0002 32.5Z" fill="#C4A2FC"/>
<path d="M45.0864 41.2499H48.7802C48.8375 38.5916 49.44 35.9734 50.5502 33.5574C49.0775 34.292 47.8086 35.3782 46.8556 36.7199C45.9027 38.0616 45.295 39.6174 45.0864 41.2499Z" fill="#C4A2FC"/>
<path d="M45.0864 43.75C45.295 45.3824 45.9027 46.9383 46.8556 48.28C47.8086 49.6217 49.0775 50.7079 50.5502 51.4425C49.44 49.0265 48.8375 46.4083 48.7802 43.75H45.0864Z" fill="#C4A2FC"/>
<path d="M59.4497 51.4425C60.9224 50.7079 62.1913 49.6217 63.1442 48.28C64.0972 46.9383 64.7049 45.3824 64.9135 43.75H61.2197C61.1624 46.4083 60.5599 49.0265 59.4497 51.4425Z" fill="#C4A2FC"/>
<path d="M75 21.25H35C34.0054 21.25 33.0516 21.6451 32.3483 22.3483C31.6451 23.0516 31.25 24.0054 31.25 25V75C31.25 75.9946 31.6451 76.9484 32.3483 77.6516C33.0516 78.3549 34.0054 78.75 35 78.75H75C75.9946 78.75 76.9484 78.3549 77.6516 77.6516C78.3549 76.9484 78.75 75.9946 78.75 75V25C78.75 24.0054 78.3549 23.0516 77.6516 22.3483C76.9484 21.6451 75.9946 21.25 75 21.25ZM62.5 71.25H47.5C47.1685 71.25 46.8505 71.1183 46.6161 70.8839C46.3817 70.6495 46.25 70.3315 46.25 70C46.25 69.6685 46.3817 69.3505 46.6161 69.1161C46.8505 68.8817 47.1685 68.75 47.5 68.75H62.5C62.8315 68.75 63.1495 68.8817 63.3839 69.1161C63.6183 69.3505 63.75 69.6685 63.75 70C63.75 70.3315 63.6183 70.6495 63.3839 70.8839C63.1495 71.1183 62.8315 71.25 62.5 71.25ZM66.25 63.75H43.75C43.4185 63.75 43.1005 63.6183 42.8661 63.3839C42.6317 63.1495 42.5 62.8315 42.5 62.5C42.5 62.1685 42.6317 61.8505 42.8661 61.6161C43.1005 61.3817 43.4185 61.25 43.75 61.25H66.25C66.5815 61.25 66.8995 61.3817 67.1339 61.6161C67.3683 61.8505 67.5 62.1685 67.5 62.5C67.5 62.8315 67.3683 63.1495 67.1339 63.3839C66.8995 63.6183 66.5815 63.75 66.25 63.75ZM55 55C52.5277 55 50.111 54.2669 48.0554 52.8934C45.9998 51.5199 44.3976 49.5676 43.4515 47.2835C42.5054 44.9995 42.2579 42.4861 42.7402 40.0614C43.2225 37.6366 44.413 35.4093 46.1612 33.6612C47.9093 31.913 50.1366 30.7225 52.5614 30.2402C54.9861 29.7579 57.4995 30.0054 59.7835 30.9515C62.0676 31.8976 64.0199 33.4998 65.3934 35.5554C66.7669 37.611 67.5 40.0277 67.5 42.5C67.4964 45.8141 66.1782 48.9914 63.8348 51.3348C61.4914 53.6782 58.3141 54.9964 55 55Z" fill="#C4A2FC"/>
<path d="M59.4497 33.5574C60.5599 35.9734 61.1624 38.5916 61.2197 41.2499H64.9135C64.7049 39.6174 64.0972 38.0616 63.1442 36.7199C62.1913 35.3782 60.9224 34.292 59.4497 33.5574Z" fill="#C4A2FC"/>
<path d="M48.3474 4.15249C48.1117 3.9248 47.7959 3.7988 47.4682 3.80165C47.1404 3.8045 46.8269 3.93596 46.5951 4.16772C46.3634 4.39948 46.2319 4.713 46.2291 5.04074C46.2262 5.36849 46.3522 5.68424 46.5799 5.91999L46.9462 6.28624L45.1249 8.10499C40.1441 3.56156 33.6038 1.11264 26.8639 1.26741C20.1239 1.42219 13.703 4.16875 8.936 8.93603C4.16904 13.7033 1.42291 20.1245 1.26859 26.8644C1.11427 33.6044 3.56363 40.1445 8.10741 45.125L6.28616 46.9462L5.91991 46.58C5.68415 46.3523 5.3684 46.2263 5.04066 46.2291C4.71291 46.232 4.39939 46.3635 4.16763 46.5952C3.93587 46.827 3.80441 47.1405 3.80156 47.4682C3.79872 47.796 3.92471 48.1117 4.15241 48.3475C6.96107 51.4559 10.3628 53.9714 14.1576 55.7463C17.9524 57.5211 22.0637 58.5194 26.2499 58.6825V63.75H16.2499C15.9184 63.75 15.6004 63.8817 15.366 64.1161C15.1316 64.3505 14.9999 64.6685 14.9999 65C14.9999 65.3315 15.1316 65.6495 15.366 65.8839C15.6004 66.1183 15.9184 66.25 16.2499 66.25H38.7499C39.0814 66.25 39.3994 66.1183 39.6338 65.8839C39.8682 65.6495 39.9999 65.3315 39.9999 65C39.9999 64.6685 39.8682 64.3505 39.6338 64.1161C39.3994 63.8817 39.0814 63.75 38.7499 63.75H28.7499V58.6612C36.5655 58.4093 43.9935 55.1977 49.5306 49.6763C55.0678 44.1548 58.3007 36.736 58.5749 28.9212C58.8924 20.2675 55.8824 11.8337 48.3474 4.15249ZM3.74991 27.5C3.74296 23.9472 4.53471 20.4384 6.06662 17.2328C7.59854 14.0273 9.83142 11.2071 12.6001 8.98088C15.3689 6.75461 18.6026 5.1792 22.0623 4.37114C25.5219 3.56307 29.119 3.54303 32.5874 4.31249L33.1249 6.97374C33.6124 9.41249 32.9549 13.8175 30.5162 13.3275C29.8632 13.1962 29.1884 13.222 28.5474 13.403C27.9064 13.584 27.3176 13.9148 26.8298 14.3683C26.3419 14.8217 25.9689 15.3847 25.7416 16.0107C25.5143 16.6368 25.4391 17.3079 25.5224 17.9687L25.7187 19.5362C25.8387 20.5173 25.664 21.5118 25.2169 22.3933C24.7697 23.2747 24.0703 24.0031 23.2078 24.4857C22.3453 24.9683 21.3587 25.1833 20.3736 25.1032C19.3884 25.0232 18.4495 24.6518 17.6762 24.0362L16.5987 23.175C16.0358 22.7228 15.3659 22.4234 14.6535 22.3055C13.9412 22.1877 13.2105 22.2556 12.532 22.5024C11.8535 22.7493 11.2502 23.167 10.7801 23.715C10.3101 24.2631 9.98928 24.9231 9.84866 25.6312C9.62846 26.7562 8.97711 27.7504 8.03376 28.4016C7.0904 29.0527 5.92982 29.3092 4.79991 29.1162L3.82366 28.9537C3.79366 28.47 3.74991 27.99 3.74991 27.5ZM4.12491 31.5375C4.59593 31.6275 5.07413 31.6748 5.55366 31.6787C7.14762 31.6786 8.69201 31.1246 9.92262 30.1115C11.1532 29.0985 11.9936 27.6892 12.2999 26.125C12.3569 25.8383 12.4868 25.5712 12.6771 25.3493C12.8674 25.1275 13.1116 24.9585 13.3863 24.8586C13.661 24.7587 13.9568 24.7313 14.2451 24.7791C14.5334 24.8268 14.8046 24.9481 15.0324 25.1312L16.1099 25.9925C17.2718 26.9177 18.6828 27.476 20.1632 27.5964C21.6435 27.7168 23.1262 27.3937 24.4223 26.6683C25.7184 25.943 26.7692 24.8483 27.4408 23.5235C28.1125 22.1988 28.3745 20.7042 28.1937 19.23L27.9999 17.6587C27.9661 17.3891 27.9973 17.1153 28.091 16.8602C28.1847 16.6051 28.3382 16.3761 28.5386 16.1925C28.7389 16.0089 28.9804 15.876 29.2427 15.8049C29.505 15.7338 29.7805 15.7265 30.0462 15.7837C34.5599 16.6887 36.4499 10.86 35.5737 6.48374L35.2949 5.08999C39.5408 6.57059 43.2801 9.22418 46.0794 12.7432C48.8787 16.2622 50.6233 20.5024 51.1112 24.9725L49.9862 24.1675C49.2158 23.618 48.3213 23.2678 47.3826 23.148C46.4439 23.0283 45.4902 23.1428 44.6066 23.4814C43.7229 23.8199 42.9368 24.3719 42.3184 25.0882C41.6999 25.8044 41.2685 26.6627 41.0624 27.5862C40.9674 28.0164 40.7852 28.4225 40.5273 28.7795C40.2693 29.1366 39.941 29.437 39.5625 29.6623C39.1839 29.8877 38.7633 30.0331 38.3265 30.0896C37.8896 30.1462 37.4458 30.1127 37.0224 29.9912C35.5417 29.5697 33.9752 29.5511 32.4849 29.9375C30.9946 30.3238 29.6344 31.101 28.5449 32.1887L28.2499 32.4837C27.605 33.1301 27.1233 33.9207 26.8446 34.7902C26.566 35.6596 26.4984 36.583 26.6474 37.4837C26.7246 37.9473 26.6998 38.422 26.5749 38.875C26.45 39.328 26.2279 39.7483 25.924 40.1068C25.6202 40.4652 25.2419 40.7532 24.8155 40.9506C24.3891 41.148 23.9248 41.2502 23.4549 41.25H22.5449C21.1876 41.2461 19.8734 41.7259 18.8378 42.6032C17.8022 43.4805 17.1129 44.6981 16.8937 46.0375L16.4799 48.52C13.2584 46.8233 10.4692 44.41 8.32725 41.4657C6.18526 38.5214 4.74758 35.1248 4.12491 31.5375ZM29.1124 37.0712C29.0283 36.5632 29.0664 36.0424 29.2236 35.552C29.3807 35.0617 29.6524 34.6158 30.0162 34.2512L30.3112 33.9562C31.0852 33.1832 32.0517 32.6309 33.1108 32.3567C34.1698 32.0824 35.2829 32.0961 36.3349 32.3962C37.0862 32.611 37.8736 32.6696 38.6484 32.5686C39.4233 32.4676 40.1692 32.2091 40.8404 31.809C41.5116 31.4089 42.0938 30.8756 42.5512 30.2421C43.0086 29.6085 43.3314 28.888 43.4999 28.125C43.6151 27.6036 43.8578 27.119 44.2063 26.7145C44.5548 26.31 44.9982 25.9982 45.4968 25.8072C45.9954 25.6162 46.5336 25.5519 47.0632 25.62C47.5927 25.6881 48.0971 25.8865 48.5312 26.1975L51.2187 28.125C51.1293 31.9391 50.1196 35.6752 48.2757 39.0152C46.4317 42.3551 43.8081 45.2001 40.628 47.308C37.448 49.4158 33.8057 50.724 30.0113 51.1214C26.2169 51.5187 22.3826 50.9933 18.8349 49.59L19.3587 46.4475C19.483 45.6928 19.8719 45.007 20.4557 44.5127C21.0394 44.0185 21.78 43.7481 22.5449 43.75H23.4549C24.288 43.7501 25.111 43.5687 25.8669 43.2185C26.6227 42.8682 27.2931 42.3575 27.8316 41.7219C28.37 41.0862 28.7635 40.3409 28.9847 39.5378C29.2059 38.7346 29.2495 37.8929 29.1124 37.0712ZM8.09741 48.67L9.87491 46.8925C14.8554 51.4363 21.3955 53.8856 28.1355 53.7313C34.8754 53.577 41.2966 50.8309 46.0639 46.0639C50.8312 41.2969 53.5777 34.876 53.7325 28.136C53.8873 21.3961 51.4383 14.8558 46.8949 9.87499L48.6562 8.11374C53.6645 13.8304 56.3164 21.2348 56.0762 28.8312C55.1862 53.125 26.0349 65.1012 8.09741 48.67Z" fill="#151A6A"/>
</svg>
